<?xml version="1.0" encoding="UTF-8"?>
<svg version="1.1" xmlns="http://www.w3.org/2000/svg" width="124" height="130">
<path d="M0 0 C0.556875 0.22816406 1.11375 0.45632812 1.6875 0.69140625 C6.4897453 2.50036014 9.90948838 3.23034436 14.95703125 2.34375 C20.11750586 1.47544834 24.4393401 1.05710131 29 3.8125 C32.24779482 7.36477558 32.07076376 10.20620916 31.9375 14.8125 C31.90508062 19.28637437 32.00418824 22.90333375 34 27 C34.4846875 27.43441406 34.969375 27.86882813 35.46875 28.31640625 C37.47861379 30.52623098 37.94204853 32.49574299 38.6875 35.375 C38.93886719 36.31085937 39.19023438 37.24671875 39.44921875 38.2109375 C39.98284993 40.91315495 40.09386309 43.25562202 40 46 C40 47.32 40 48.64 40 50 C39.80493546 58.79563723 36.92689141 68.32828534 31 75 C30.34 75 29.68 75 29 75 C28.46658816 73.42085985 27.94874237 71.83645613 27.4375 70.25 C27.14746094 69.36828125 26.85742188 68.4865625 26.55859375 67.578125 C25.98302565 64.92165684 26.10751629 63.52968894 27 61 C30.465 60.505 30.465 60.505 34 60 C31.66682784 59.22227595 29.38564077 58.57584432 27 58 C27 57.01 27 56.02 27 55 C26.071875 54.938125 25.14375 54.87625 24.1875 54.8125 C21 54 21 54 19.125 51.4375 C18.75375 50.633125 18.3825 49.82875 18 49 C15.69 50.98 13.38 52.96 11 55 C11.495 56.98 11.495 56.98 12 59 C12.66 59 13.32 59 14 59 C13.95875 59.94875 13.9175 60.8975 13.875 61.875 C13.65026182 65.10244856 13.65026182 65.10244856 16 67 C16.66 66.67 17.32 66.34 18 66 C17.01 65.01 16.02 64.02 15 63 C15.66 61.68 16.32 60.36 17 59 C18.98 59.33 20.96 59.66 23 60 C23 60.99 23 61.98 23 63 C23.45375 63.433125 23.9075 63.86625 24.375 64.3125 C27.4326717 67.48777446 27.93849502 71.15430654 28.25 75.4375 C27.9161329 80.1951062 27.46095044 84.53904956 24 88 C20.9609375 88.1953125 20.9609375 88.1953125 17.375 88.125 C16.18648438 88.10695313 14.99796875 88.08890625 13.7734375 88.0703125 C12.85820313 88.04710938 11.94296875 88.02390625 11 88 C10.505 89.485 10.505 89.485 10 91 C4.79267778 93.28614146 -1.52238898 94.82587034 -7 93 C-8.99956611 92.95834237 -11.00043389 92.95834237 -13 93 C-19.39449027 93 -24.29908589 91.69477019 -30 88.8125 C-30.61520508 88.50296387 -31.23041016 88.19342773 -31.86425781 87.87451172 C-35.23830667 86.11939708 -38.04217289 84.28769665 -40.75 81.625 C-44.10188383 78.39221864 -47.18019759 78.45492339 -51.69140625 78.26953125 C-55.02518008 77.88030892 -56.7451648 76.40030844 -59 74 C-60.28939122 71.42121756 -59.96551673 69.85485837 -59.6875 67 C-59.60886719 66.113125 -59.53023437 65.22625 -59.44921875 64.3125 C-59 62 -59 62 -57 60 C-56.95758277 57.66705225 -56.95907063 55.33297433 -57 53 C-56.67 52.01 -56.34 51.02 -56 50 C-55.98052023 48.45831564 -56.00624927 46.91578097 -56.0625 45.375 C-56.12301418 38.46629748 -55.35137279 31.62052318 -51 26 C-50.34 26 -49.68 26 -49 26 C-48.67 24.02 -48.34 22.04 -48 20 C-48.66 20 -49.32 20 -50 20 C-49.67 17.69 -49.34 15.38 -49 13 C-45.13752925 11.50768176 -42.9551934 10.81344198 -39 12 C-36.86196946 11.92393164 -36.86196946 11.92393164 -35 11 C-34.55914062 10.05253906 -34.55914062 10.05253906 -34.109375 9.0859375 C-32.1860718 5.46958571 -28.72341169 4.36285997 -25 3 C-21.33938539 2.21326045 -17.74532772 2 -14 2 C-11.74739695 1.76768735 -9.50180311 1.49260546 -7.25390625 1.21875 C-5 1 -5 1 -1 1 C-0.67 0.67 -0.34 0.34 0 0 Z M2 4 C3.51339536 7.43953492 5.60783685 10.25355553 7.87890625 13.21875 C9 15 9 15 10 19 C6.37 18.34 2.74 17.68 -1 17 C-0.67 18.32 -0.34 19.64 0 21 C3.63 21 7.26 21 11 21 C11.99 23.97 12.98 26.94 14 30 C14.66 30 15.32 30 16 30 C15.34 27.03 14.68 24.06 14 21 C17.3 21.33 20.6 21.66 24 22 C20.22870224 19.85492768 20.22870224 19.85492768 16.625 19.5 C11.81994813 17.51170268 10.81619959 14.87583364 8.421875 10.421875 C6.73267011 7.54465788 4.79184614 5.80648868 2 4 Z M15 7 C15.86625 7.556875 16.7325 8.11375 17.625 8.6875 C19.97475789 10.24101292 22.11957975 11.90818348 24.25 13.75 C26.66579117 16.21107926 26.66579117 16.21107926 29 16 C28.91291331 14.54054712 28.80473093 13.08234132 28.6875 11.625 C28.62949219 10.81289063 28.57148437 10.00078125 28.51171875 9.1640625 C28.17009472 6.62078662 28.17009472 6.62078662 25 5 C21.14650927 4.48111412 17.88323448 4.11676552 15 7 Z M-23 9 C-26.52861698 10.82514671 -27.49643919 12.8737505 -28.6875 16.5 C-29.13419111 17.99728865 -29.57254651 19.4971062 -30 21 C-30.33 21.99 -30.66 22.98 -31 24 C-30.67 24.33 -30.34 24.66 -30 25 C-23.21431098 24.38311918 -16.61286627 22.58112141 -10 21 C-10.12310643 19.06652795 -10.12310643 19.06652795 -11 17 C-13.23610722 15.53294242 -13.23610722 15.53294242 -15.9375 14.4375 C-20.79661017 12.30508475 -20.79661017 12.30508475 -23 9 Z M-6 23 C-4.09866861 28.04159484 0.2343596 31.3284996 4.03710938 34.95898438 C7.88852701 38.70427799 10.99065039 42.54525921 14 47 C16.08333079 45.25065102 16.08333079 45.25065102 18 43 C18 41.68 18 40.36 18 39 C17.01 39 16.02 39 15 39 C14.67 39.99 14.34 40.98 14 42 C12.08122455 39.93942825 10.16494202 37.87662937 8.25 35.8125 C7.71117188 35.23435547 7.17234375 34.65621094 6.6171875 34.06054688 C4.22045739 31.47383206 1.92564996 28.90499717 -0.25 26.125 C-2.14850796 23.81966891 -3.0782168 23.3130482 -6 23 Z M-48 33 C-48 34.32 -48 35.64 -48 37 C-48.66 37 -49.32 37 -50 37 C-49.67 37.99 -49.34 38.98 -49 40 C-48.34 40 -47.68 40 -47 40 C-46.566875 41.36125 -46.566875 41.36125 -46.125 42.75 C-45.23123801 45.33197909 -44.24783111 47.58752652 -43 50 C-42.67 50.99 -42.34 51.98 -42 53 C-41.0206121 54.02019573 -40.02104551 55.02149805 -39 56 C-38.67 56.66 -38.34 57.32 -38 58 C-36.02 58 -34.04 58 -32 58 C-32.495 51.565 -32.495 51.565 -33 45 C-30.00520833 46.00911458 -27.01041667 47.01822917 -24.015625 48.02734375 C-21.68264275 48.77982119 -19.38625005 49.44977244 -17 50 C-16.690625 49.21625 -16.38125 48.4325 -16.0625 47.625 C-15 45 -15 45 -14 43 C-15.19238281 42.75765625 -16.38476562 42.5153125 -17.61328125 42.265625 C-19.17986761 41.92791776 -20.74626433 41.58932996 -22.3125 41.25 C-23.09818359 41.09273437 -23.88386719 40.93546875 -24.69335938 40.7734375 C-30.54275341 39.4791035 -30.54275341 39.4791035 -33.04296875 36.859375 C-33.35878906 36.24578125 -33.67460938 35.6321875 -34 35 C-34.33 36.32 -34.66 37.64 -35 39 C-35.99 38.67 -36.98 38.34 -38 38 C-40.33299825 37.96045766 -42.66708189 37.95598268 -45 38 C-44.67 36.68 -44.34 35.36 -44 34 C-45.32 33.67 -46.64 33.34 -48 33 Z M-51 40 C-50 42 -50 42 -50 42 Z M-7 46 C-7.99 47.98 -8.98 49.96 -10 52 C-8.11191474 52.72873466 -6.21408746 53.43226247 -4.3125 54.125 C-2.72888672 54.71667969 -2.72888672 54.71667969 -1.11328125 55.3203125 C2.52604451 56.11484535 3.81182411 55.85051669 7 54 C9.27191416 51.97959252 9.27191416 51.97959252 11 50 C8.75194998 49.32678716 6.50147776 48.66165877 4.25 48 C2.99703125 47.62875 1.7440625 47.2575 0.453125 46.875 C-3.05253232 45.83624628 -3.05253232 45.83624628 -7 46 Z M-55 61 C-57.22004799 65.30950492 -57.14885105 68.31622265 -56 73 C-52.68629 75.20914 -51.6553979 75.22481553 -47.8125 75.125 C-46.46091797 75.09792969 -46.46091797 75.09792969 -45.08203125 75.0703125 C-44.05142578 75.03550781 -44.05142578 75.03550781 -43 75 C-43.99 74.34 -44.98 73.68 -46 73 C-50.19361982 69.5926839 -51.33308055 66.00075835 -53 61 C-53.66 61 -54.32 61 -55 61 Z M-32 67 C-31.34 68.65 -30.68 70.3 -30 72 C-28.35 71.67 -26.7 71.34 -25 71 C-26.3553326 68.46326712 -26.3553326 68.46326712 -28 66 C-30.0745356 65.8509288 -30.0745356 65.8509288 -32 67 Z M-8.5625 69 C-9.38878906 69.185625 -10.21507812 69.37125 -11.06640625 69.5625 C-12.02353516 69.7790625 -12.02353516 69.7790625 -13 70 C-13 70.33 -13 70.66 -13 71 C-10.69 71 -8.38 71 -6 71 C-5.34 72.32 -4.68 73.64 -4 75 C-3.67 72.69 -3.34 70.38 -3 68 C-4.88598061 68 -6.73132362 68.58734053 -8.5625 69 Z M-24 74 C-24 74.66 -24 75.32 -24 76 C-23.14921875 76.41894531 -22.2984375 76.83789062 -21.421875 77.26953125 C-16.82835314 79.59251091 -12.33544397 82.08901891 -7.828125 84.57421875 C-5.23021891 86.15005706 -5.23021891 86.15005706 -3 86 C-3 85.34 -3 84.68 -3 84 C-7.62 81.69 -12.24 79.38 -17 77 C-17 75.33333333 -17 73.66666667 -17 72 C-20.10551666 72 -21.35261084 72.5393715 -24 74 Z M-31 75 C-31.66 75.66 -32.32 76.32 -33 77 C-31.68 77 -30.36 77 -29 77 C-29 76.34 -29 75.68 -29 75 C-29.66 75 -30.32 75 -31 75 Z M-28 77 C-26.70700306 79.88437779 -25.34058637 81.87219421 -23 84 C-24.39759905 80.45481116 -24.39759905 80.45481116 -26 77 C-26.66 77 -27.32 77 -28 77 Z M-23 84 C-21.95125002 86.62187494 -21.35068687 87.79371361 -18.875 89.25 C-18.25625 89.4975 -17.6375 89.745 -17 90 C-18.64169528 87.97945196 -20.30911778 85.97956942 -22 84 C-22.33 84 -22.66 84 -23 84 Z M2 86 C1.67 86.66 1.34 87.32 1 88 C3.31 88 5.62 88 8 88 C8 87.67 8 87.34 8 87 C5.03 86.505 5.03 86.505 2 86 Z M-2 88 C-1.67 88.66 -1.34 89.32 -1 90 C-0.67 89.34 -0.34 88.68 0 88 C-0.66 88 -1.32 88 -2 88 Z " fill="#3F72DF" transform="translate(72,17)"/>
<path d="M0 0 C0.556875 0.22816406 1.11375 0.45632812 1.6875 0.69140625 C6.4897453 2.50036014 9.90948838 3.23034436 14.95703125 2.34375 C20.11750586 1.47544834 24.4393401 1.05710131 29 3.8125 C32.24779482 7.36477558 32.07076376 10.20620916 31.9375 14.8125 C31.90508062 19.28637437 32.00418824 22.90333375 34 27 C34.4846875 27.43441406 34.969375 27.86882813 35.46875 28.31640625 C37.47861379 30.52623098 37.94204853 32.49574299 38.6875 35.375 C38.93886719 36.31085937 39.19023438 37.24671875 39.44921875 38.2109375 C39.98284993 40.91315495 40.09386309 43.25562202 40 46 C40 47.32 40 48.64 40 50 C39.80493546 58.79563723 36.92689141 68.32828534 31 75 C30.34 75 29.68 75 29 75 C28.46658816 73.42085985 27.94874237 71.83645613 27.4375 70.25 C27.14746094 69.36828125 26.85742188 68.4865625 26.55859375 67.578125 C25.98302565 64.92165684 26.10751629 63.52968894 27 61 C29.31 60.67 31.62 60.34 34 60 C31.66682784 59.22227595 29.38564077 58.57584432 27 58 C27 57.01 27 56.02 27 55 C25.6078125 54.9071875 25.6078125 54.9071875 24.1875 54.8125 C21 54 21 54 19.125 51.4375 C18.75375 50.633125 18.3825 49.82875 18 49 C16.87105124 49.93274109 15.74699124 50.87140122 14.625 51.8125 C13.99851563 52.33457031 13.37203125 52.85664062 12.7265625 53.39453125 C10.7778952 55.08225739 10.7778952 55.08225739 9 58 C9 57.34 9 56.68 9 56 C8.484375 56.185625 7.96875 56.37125 7.4375 56.5625 C4.14091261 57.15419517 1.27754265 56.567267 -2 56 C-1.67 55.34 -1.34 54.68 -1 54 C-0.29875 54.2475 0.4025 54.495 1.125 54.75 C5.14531402 55.09959252 6.88338362 53.39182187 10 51 C6.7 49.68 3.4 48.36 0 47 C3 46 3 46 6.0625 46.5625 C7.031875 46.706875 8.00125 46.85125 9 47 C9.66 46.34 10.32 45.68 11 45 C9.865625 44.443125 8.73125 43.88625 7.5625 43.3125 C5.59765625 42.19921875 5.59765625 42.19921875 4 41 C3.64984951 39.33678518 3.31802943 37.66965451 3 36 C0.34011425 33.11192029 -2.59161022 30.66201988 -6.15234375 28.98828125 C-8.78733121 27.57886935 -9.12752654 25.76283261 -10 23 C-12.64 23 -15.28 23 -18 23 C-18.33 23.99 -18.66 24.98 -19 26 C-23.49885947 26.86516528 -26.01647791 27.30903272 -30 25 C-27.41806023 24.32749476 -24.83467929 23.66182099 -22.25 23 C-21.15558594 22.71382812 -21.15558594 22.71382812 -20.0390625 22.421875 C-16.55428354 21.53484036 -13.61876278 21 -10 21 C-10.67449623 17.84867348 -10.67449623 17.84867348 -13.25 16.75390625 C-15.08238472 15.96004639 -16.9157197 15.16837632 -18.75 14.37890625 C-21 13 -21 13 -21.8125 10.83984375 C-21.874375 10.23269531 -21.93625 9.62554687 -22 9 C-17.36112897 4.15888936 -13.91908259 1.2556455 -7.078125 0.97265625 C-6.39234375 0.98167969 -5.7065625 0.99070312 -5 1 C-3.68 1 -2.36 1 -1 1 C-0.67 0.67 -0.34 0.34 0 0 Z M2 4 C3.51339536 7.43953492 5.60783685 10.25355553 7.87890625 13.21875 C9 15 9 15 10 19 C6.37 18.34 2.74 17.68 -1 17 C-0.67 18.32 -0.34 19.64 0 21 C3.63 21 7.26 21 11 21 C11.99 23.97 12.98 26.94 14 30 C14.66 30 15.32 30 16 30 C15.34 27.03 14.68 24.06 14 21 C17.3 21.33 20.6 21.66 24 22 C20.22870224 19.85492768 20.22870224 19.85492768 16.625 19.5 C11.81994813 17.51170268 10.81619959 14.87583364 8.421875 10.421875 C6.73267011 7.54465788 4.79184614 5.80648868 2 4 Z M15 7 C15.86625 7.556875 16.7325 8.11375 17.625 8.6875 C19.97475789 10.24101292 22.11957975 11.90818348 24.25 13.75 C26.66579117 16.21107926 26.66579117 16.21107926 29 16 C28.91291331 14.54054712 28.80473093 13.08234132 28.6875 11.625 C28.62949219 10.81289063 28.57148437 10.00078125 28.51171875 9.1640625 C28.17009472 6.62078662 28.17009472 6.62078662 25 5 C21.14650927 4.48111412 17.88323448 4.11676552 15 7 Z M-6 23 C-4.09866861 28.04159484 0.2343596 31.3284996 4.03710938 34.95898438 C7.88852701 38.70427799 10.99065039 42.54525921 14 47 C16.08333079 45.25065102 16.08333079 45.25065102 18 43 C18 41.68 18 40.36 18 39 C17.01 39 16.02 39 15 39 C14.67 39.99 14.34 40.98 14 42 C12.08122455 39.93942825 10.16494202 37.87662937 8.25 35.8125 C7.71117187 35.23435547 7.17234375 34.65621094 6.6171875 34.06054688 C4.22045739 31.47383206 1.92564996 28.90499717 -0.25 26.125 C-2.14850796 23.81966891 -3.0782168 23.3130482 -6 23 Z " fill="#486EC9" transform="translate(72,17)"/>
<path d="M0 0 C1.21236328 0.02707031 1.21236328 0.02707031 2.44921875 0.0546875 C3.37154297 0.08949219 3.37154297 0.08949219 4.3125 0.125 C3.9825 0.785 3.6525 1.445 3.3125 2.125 C2.3225 1.795 1.3325 1.465 0.3125 1.125 C0.3125 1.785 0.3125 2.445 0.3125 3.125 C1.3025 3.455 2.2925 3.785 3.3125 4.125 C3.3125 5.445 3.3125 6.765 3.3125 8.125 C4.3025 8.125 5.2925 8.125 6.3125 8.125 C6.3125 8.785 6.3125 9.445 6.3125 10.125 C7.3025 10.125 8.2925 10.125 9.3125 10.125 C9.3125 11.115 9.3125 12.105 9.3125 13.125 C8.6525 13.125 7.9925 13.125 7.3125 13.125 C7.3125 14.775 7.3125 16.425 7.3125 18.125 C7.9725 18.125 8.6325 18.125 9.3125 18.125 C9.6425 20.105 9.9725 22.085 10.3125 24.125 C14.20709074 24.33581851 14.20709074 24.33581851 17.3125 23.125 C16.9825 20.815 16.6525 18.505 16.3125 16.125 C16.910625 16.764375 17.50875 17.40375 18.125 18.0625 C20.22060337 20.32810389 20.22060337 20.32810389 23.3125 21.125 C21.6625 22.445 20.0125 23.765 18.3125 25.125 C20.2925 25.125 22.2725 25.125 24.3125 25.125 C24.6425 24.465 24.9725 23.805 25.3125 23.125 C25.3125 23.785 25.3125 24.445 25.3125 25.125 C26.3025 25.2178125 26.3025 25.2178125 27.3125 25.3125 C30.78928022 26.25412798 33.18565926 27.82200816 36.17578125 29.78125 C39.43286305 31.82957932 42.8485241 33.45486876 46.3125 35.125 C46.3125 34.465 46.3125 33.805 46.3125 33.125 C45.59707031 33.01929688 44.88164063 32.91359375 44.14453125 32.8046875 C41.01765065 32.05423616 38.75789157 30.89247765 36 29.25 C35.11699219 28.73695312 34.23398437 28.22390625 33.32421875 27.6953125 C32.66035156 27.17710938 31.99648438 26.65890625 31.3125 26.125 C31.3125 23.125 31.3125 23.125 32.3125 21.125 C29.3425 21.62 29.3425 21.62 26.3125 22.125 C26.8075 20.64 26.8075 20.64 27.3125 19.125 C33.3125 19.125 39.3125 19.125 45.3125 19.125 C43.9925 18.465 42.6725 17.805 41.3125 17.125 C41.9725 16.465 42.6325 15.805 43.3125 15.125 C45.3125 15.125 47.3125 15.125 49.3125 15.125 C49.6425 14.135 49.9725 13.145 50.3125 12.125 C53.60226808 11.02841064 55.02553767 11.32546862 58.3125 12.125 C58.6425 10.475 58.9725 8.825 59.3125 7.125 C60.6325 7.455 61.9525 7.785 63.3125 8.125 C63.27125 9.07375 63.23 10.0225 63.1875 11 C62.96276182 14.22744856 62.96276182 14.22744856 65.3125 16.125 C65.9725 15.795 66.6325 15.465 67.3125 15.125 C66.3225 14.135 65.3325 13.145 64.3125 12.125 C64.9725 10.805 65.6325 9.485 66.3125 8.125 C69.2825 8.62 69.2825 8.62 72.3125 9.125 C72.3125 10.115 72.3125 11.105 72.3125 12.125 C72.993125 12.7746875 72.993125 12.7746875 73.6875 13.4375 C76.7451717 16.61277446 77.25099502 20.27930654 77.5625 24.5625 C77.2286329 29.3201062 76.77345044 33.66404956 73.3125 37.125 C70.2734375 37.3203125 70.2734375 37.3203125 66.6875 37.25 C64.90472656 37.22292969 64.90472656 37.22292969 63.0859375 37.1953125 C61.71308594 37.16050781 61.71308594 37.16050781 60.3125 37.125 C59.9825 38.115 59.6525 39.105 59.3125 40.125 C54.10517778 42.41114146 47.79011102 43.95087034 42.3125 42.125 C40.31293389 42.08334237 38.31206611 42.08334237 36.3125 42.125 C29.91800973 42.125 25.01341411 40.81977019 19.3125 37.9375 C18.69729492 37.62796387 18.08208984 37.31842773 17.44824219 36.99951172 C14.07419333 35.24439708 11.27032711 33.41269665 8.5625 30.75 C5.21061617 27.51721864 2.13230241 27.57992339 -2.37890625 27.39453125 C-5.71268008 27.00530892 -7.4326648 25.52530844 -9.6875 23.125 C-10.97689122 20.54621756 -10.65301673 18.97985837 -10.375 16.125 C-10.29636719 15.238125 -10.21773437 14.35125 -10.13671875 13.4375 C-9.6875 11.125 -9.6875 11.125 -7.6875 9.125 C-7.708125 7.97 -7.72875 6.815 -7.75 5.625 C-7.729375 4.47 -7.70875 3.315 -7.6875 2.125 C-4.48369983 -0.01086678 -3.66810033 -0.10632175 0 0 Z M-5.6875 10.125 C-7.90754799 14.43450492 -7.83635105 17.44122265 -6.6875 22.125 C-3.37379 24.33414 -2.3428979 24.34981553 1.5 24.25 C2.85158203 24.22292969 2.85158203 24.22292969 4.23046875 24.1953125 C5.26107422 24.16050781 5.26107422 24.16050781 6.3125 24.125 C5.3225 23.465 4.3325 22.805 3.3125 22.125 C-0.88111982 18.7176839 -2.02058055 15.12575835 -3.6875 10.125 C-4.3475 10.125 -5.0075 10.125 -5.6875 10.125 Z M21.3125 26.125 C22.60549694 29.00937779 23.97191363 30.99719421 26.3125 33.125 C24.91490095 29.57981116 24.91490095 29.57981116 23.3125 26.125 C22.6525 26.125 21.9925 26.125 21.3125 26.125 Z M26.3125 33.125 C27.36124998 35.74687494 27.96181313 36.91871361 30.4375 38.375 C31.05625 38.6225 31.675 38.87 32.3125 39.125 C30.67080472 37.10445196 29.00338222 35.10456942 27.3125 33.125 C26.9825 33.125 26.6525 33.125 26.3125 33.125 Z M51.3125 35.125 C50.9825 35.785 50.6525 36.445 50.3125 37.125 C52.6225 37.125 54.9325 37.125 57.3125 37.125 C57.3125 36.795 57.3125 36.465 57.3125 36.125 C54.3425 35.63 54.3425 35.63 51.3125 35.125 Z M47.3125 37.125 C47.6425 37.785 47.9725 38.445 48.3125 39.125 C48.6425 38.465 48.9725 37.805 49.3125 37.125 C48.6525 37.125 47.9925 37.125 47.3125 37.125 Z " fill="#3565CA" transform="translate(22.6875,67.875)"/>
<path d="M0 0 C1 3 1 3 1 5 C7.46421049 7.01654035 7.46421049 7.01654035 14 6 C14.33 5.34 14.66 4.68 15 4 C17.64 4 20.28 4 23 4 C23.3403125 5.175625 23.3403125 5.175625 23.6875 6.375 C25.37439549 9.74879097 26.50964849 9.75898613 30 11 C31.2756009 11.74971892 32.52511896 12.54499847 33.75 13.375 C34.34296875 13.77460937 34.9359375 14.17421875 35.546875 14.5859375 C37.342565 16.33335627 37.70515705 17.5331473 38 20 C37.67 20.66 37.34 21.32 37 22 C37.94875 22.268125 38.8975 22.53625 39.875 22.8125 C43 24 43 24 45 27 C41.05229304 29.63180464 38.26019851 28.8008948 33.8125 28.125 C33.06291016 28.02058594 32.31332031 27.91617188 31.54101562 27.80859375 C29.69250796 27.5495672 27.84602568 27.27616034 26 27 C25.34 28.65 24.68 30.3 24 32 C26.31 32.99 28.62 33.98 31 35 C31 35.66 31 36.32 31 37 C34.63 37 38.26 37 42 37 C42.495 40.465 42.495 40.465 43 44 C41.948125 43.979375 40.89625 43.95875 39.8125 43.9375 C36.14519217 43.88320335 36.14519217 43.88320335 33.1875 44.5625 C31 45 31 45 29 44 C29 43.34 29 42.68 29 42 C30.98 41.505 30.98 41.505 33 41 C33 40.34 33 39.68 33 39 C32.21625 38.690625 31.4325 38.38125 30.625 38.0625 C28 37 28 37 26 36 C23.62876754 35.76970044 21.25258057 35.58880058 18.875 35.4375 C17.59367187 35.35371094 16.31234375 35.26992187 14.9921875 35.18359375 C13.51105469 35.09271484 13.51105469 35.09271484 12 35 C12.33 33.68 12.66 32.36 13 31 C13.99 31 14.98 31 16 31 C16.144375 30.195625 16.28875 29.39125 16.4375 28.5625 C17 26 17 26 18 25 C16.30230469 24.61908203 16.30230469 24.61908203 14.5703125 24.23046875 C13.08839517 23.88343748 11.60663214 23.53574687 10.125 23.1875 C9.37863281 23.02185547 8.63226563 22.85621094 7.86328125 22.68554688 C2.2265625 21.33984375 2.2265625 21.33984375 0 18 C0 17.01 0 16.02 0 15 C-0.66 15 -1.32 15 -2 15 C-2 14.34 -2 13.68 -2 13 C-4.64 13.66 -7.28 14.32 -10 15 C-10 14.34 -10 13.68 -10 13 C-11.32 13 -12.64 13 -14 13 C-14 11.68 -14 10.36 -14 9 C-10.37 9 -6.74 9 -3 9 C-2.87625 7.88625 -2.7525 6.7725 -2.625 5.625 C-2 2 -2 2 0 0 Z " fill="#487BEE" transform="translate(39,36)"/>
<path d="M0 0 C0.556875 0.22816406 1.11375 0.45632812 1.6875 0.69140625 C6.4897453 2.50036014 9.90948838 3.23034436 14.95703125 2.34375 C20.11750586 1.47544834 24.4393401 1.05710131 29 3.8125 C32.90897676 8.08794333 32.04583935 12.62547788 31.9375 18.08984375 C31.99161771 20.60969957 32.26206437 22.60747431 33 25 C32.46632812 24.80664062 31.93265625 24.61328125 31.3828125 24.4140625 C27.14317969 22.93239152 23.27958439 21.8901721 18.8125 21.375 C15.57593998 20.80532511 14.32575371 20.35278995 12.0703125 17.91015625 C10.58233104 15.65682548 9.26432836 13.38402876 8 11 C7.67 10.67 7.34 10.34 7 10 C7.495 10.7425 7.99 11.485 8.5 12.25 C10 15 10 15 10 19 C4.63108121 18.50130596 -0.69235173 17.97772468 -6 17 C-6 18.32 -6 19.64 -6 21 C-6.99 21 -7.98 21 -9 21 C-9.33 19.02 -9.66 17.04 -10 15 C-11.65 15 -13.3 15 -15 15 C-15 14.34 -15 13.68 -15 13 C-16.65 12.67 -18.3 12.34 -20 12 C-20.375 9.8125 -20.375 9.8125 -20 7 C-16.05458922 2.54876732 -13.01662635 1.42388627 -7.1484375 1.04296875 C-5.09931807 1.00198636 -3.04952921 1 -1 1 C-0.67 0.67 -0.34 0.34 0 0 Z M15 7 C15.86625 7.556875 16.7325 8.11375 17.625 8.6875 C19.97475789 10.24101292 22.11957975 11.90818348 24.25 13.75 C26.66579117 16.21107926 26.66579117 16.21107926 29 16 C28.91291331 14.54054712 28.80473093 13.08234132 28.6875 11.625 C28.62949219 10.81289063 28.57148437 10.00078125 28.51171875 9.1640625 C28.17009472 6.62078662 28.17009472 6.62078662 25 5 C21.14650927 4.48111412 17.88323448 4.11676552 15 7 Z " fill="#3A63C5" transform="translate(72,17)"/>
<path d="M0 0 C1.21236328 0.02707031 1.21236328 0.02707031 2.44921875 0.0546875 C3.37154297 0.08949219 3.37154297 0.08949219 4.3125 0.125 C3.9825 0.785 3.6525 1.445 3.3125 2.125 C2.3225 1.795 1.3325 1.465 0.3125 1.125 C0.3125 1.785 0.3125 2.445 0.3125 3.125 C1.3025 3.455 2.2925 3.785 3.3125 4.125 C3.3125 5.445 3.3125 6.765 3.3125 8.125 C4.3025 8.125 5.2925 8.125 6.3125 8.125 C6.3125 8.785 6.3125 9.445 6.3125 10.125 C7.3025 10.125 8.2925 10.125 9.3125 10.125 C9.3125 11.115 9.3125 12.105 9.3125 13.125 C8.6525 13.125 7.9925 13.125 7.3125 13.125 C7.3125 14.775 7.3125 16.425 7.3125 18.125 C7.9725 18.125 8.6325 18.125 9.3125 18.125 C9.6425 20.105 9.9725 22.085 10.3125 24.125 C14.20709074 24.33581851 14.20709074 24.33581851 17.3125 23.125 C16.9825 20.815 16.6525 18.505 16.3125 16.125 C16.910625 16.764375 17.50875 17.40375 18.125 18.0625 C20.22060337 20.32810389 20.22060337 20.32810389 23.3125 21.125 C21.6625 22.445 20.0125 23.765 18.3125 25.125 C20.2925 25.125 22.2725 25.125 24.3125 25.125 C24.6425 24.465 24.9725 23.805 25.3125 23.125 C25.3125 23.785 25.3125 24.445 25.3125 25.125 C26.116875 25.24875 26.92125 25.3725 27.75 25.5 C29.0184375 25.809375 29.0184375 25.809375 30.3125 26.125 C30.8075 27.115 30.8075 27.115 31.3125 28.125 C26.3625 27.135 26.3625 27.135 21.3125 26.125 C22.55491135 27.90116574 23.80674871 29.67074043 25.0625 31.4375 C25.75859375 32.42363281 26.4546875 33.40976563 27.171875 34.42578125 C29.09220356 36.84721744 30.85190715 38.32389037 33.3125 40.125 C33.3125 40.785 33.3125 41.445 33.3125 42.125 C28.02520093 41.6057117 24.04654847 40.33094192 19.3125 37.9375 C18.69729492 37.62796387 18.08208984 37.31842773 17.44824219 36.99951172 C14.07419333 35.24439708 11.27032711 33.41269665 8.5625 30.75 C5.21061617 27.51721864 2.13230241 27.57992339 -2.37890625 27.39453125 C-5.71268008 27.00530892 -7.4326648 25.52530844 -9.6875 23.125 C-10.97689122 20.54621756 -10.65301673 18.97985837 -10.375 16.125 C-10.29636719 15.238125 -10.21773437 14.35125 -10.13671875 13.4375 C-9.6875 11.125 -9.6875 11.125 -7.6875 9.125 C-7.708125 7.97 -7.72875 6.815 -7.75 5.625 C-7.729375 4.47 -7.70875 3.315 -7.6875 2.125 C-4.48369983 -0.01086678 -3.66810033 -0.10632175 0 0 Z M-5.6875 10.125 C-7.90754799 14.43450492 -7.83635105 17.44122265 -6.6875 22.125 C-3.37379 24.33414 -2.3428979 24.34981553 1.5 24.25 C2.85158203 24.22292969 2.85158203 24.22292969 4.23046875 24.1953125 C5.26107422 24.16050781 5.26107422 24.16050781 6.3125 24.125 C5.3225 23.465 4.3325 22.805 3.3125 22.125 C-0.88111982 18.7176839 -2.02058055 15.12575835 -3.6875 10.125 C-4.3475 10.125 -5.0075 10.125 -5.6875 10.125 Z " fill="#3163D8" transform="translate(22.6875,67.875)"/>
<path d="M0 0 C3.96 0 7.92 0 12 0 C12.33 2.97 12.66 5.94 13 9 C14.65 8.67 16.3 8.34 18 8 C17.67 6.02 17.34 4.04 17 2 C20.3 2 23.6 2 27 2 C27 2.66 27 3.32 27 4 C27.9075 4.12375 28.815 4.2475 29.75 4.375 C35.13390929 5.41036717 35.13390929 5.41036717 37 7 C37.657321 9.70109219 37.81964244 12.2044578 38 15 C37.01 15 36.02 15 35 15 C34.34 13.02 33.68 11.04 33 9 C30.60280568 8.32041397 30.60280568 8.32041397 28 8 C25.66576467 9.88286431 25.66576467 9.88286431 25.875 13 C25.91625 13.99 25.9575 14.98 26 16 C26 16.66 26 17.32 26 18 C26.33 17.34 26.66 16.68 27 16 C27.66 16 28.32 16 29 16 C28.814375 15.05125 28.62875 14.1025 28.4375 13.125 C28 10 28 10 29 8 C30.32 8.66 31.64 9.32 33 10 C32.896875 10.721875 32.79375 11.44375 32.6875 12.1875 C33.12400412 16.11603704 35.19863304 17.33528509 38 20 C39.13399946 22.4947988 39.16639838 23.45088535 38.375 26.0625 C36.46240219 28.75752419 35.09077696 29.75053697 32 31 C27.42758814 31.28577574 24.09128738 30.80547402 20.375 28.0625 C18.36300841 23.581246 19.1532726 19.73983272 20 15 C19.05125 15.20625 18.1025 15.4125 17.125 15.625 C16.09375 15.74875 15.0625 15.8725 14 16 C13.34 15.34 12.68 14.68 12 14 C12 13.01 12 12.02 12 11 C11.236875 10.896875 10.47375 10.79375 9.6875 10.6875 C6.81583516 9.95288806 5.76957906 9.3283935 4 7 C4 6.34 4 5.68 4 5 C2.68 4.34 1.36 3.68 0 3 C0 2.01 0 1.02 0 0 Z " fill="#4573E8" transform="translate(71,39)"/>
<path d="M0 0 C-1.34850493 3.1465115 -2.67234792 4.70729432 -5.4375 6.6875 C-9.64043191 10.12149634 -10.78099937 13.84268964 -12 19 C-12.18820313 19.75023438 -12.37640625 20.50046875 -12.5703125 21.2734375 C-12.71210937 21.84320313 -12.85390625 22.41296875 -13 23 C-13.99 22.67 -14.98 22.34 -16 22 C-16 20.68 -16 19.36 -16 18 C-16.99 20.64 -17.98 23.28 -19 26 C-22.63 26 -26.26 26 -30 26 C-30 27.32 -30 28.64 -30 30 C-28.68 30 -27.36 30 -26 30 C-26 30.66 -26 31.32 -26 32 C-23.36 31.34 -20.72 30.68 -18 30 C-18 30.66 -18 31.32 -18 32 C-17.34 32.33 -16.68 32.66 -16 33 C-16.66 34.32 -17.32 35.64 -18 37 C-21.3 36.67 -24.6 36.34 -28 36 C-28 35.01 -28 34.02 -28 33 C-28.66 32.67 -29.32 32.34 -30 32 C-30.33 32.99 -30.66 33.98 -31 35 C-31.66 35 -32.32 35 -33 35 C-33.33 36.32 -33.66 37.64 -34 39 C-34.66 39 -35.32 39 -36 39 C-35.979375 40.11375 -35.95875 41.2275 -35.9375 42.375 C-36 46 -36 46 -37 48 C-37.66 48 -38.32 48 -39 48 C-39.31304572 39.66950563 -39.33532031 30.89145541 -34 24 C-33.34 24 -32.68 24 -32 24 C-31.67 22.02 -31.34 20.04 -31 18 C-31.66 18 -32.32 18 -33 18 C-32.67 15.69 -32.34 13.38 -32 11 C-28.13752925 9.50768176 -25.9551934 8.81344198 -22 10 C-19.86196946 9.92393164 -19.86196946 9.92393164 -18 9 C-17.71125 8.36835938 -17.4225 7.73671875 -17.125 7.0859375 C-15.76589856 4.56593691 -14.6930499 3.99961741 -12.125 2.8125 C-11.44695313 2.48894531 -10.76890625 2.16539063 -10.0703125 1.83203125 C-6.49178482 0.39386824 -3.9137634 0 0 0 Z " fill="#436CD1" transform="translate(55,19)"/>
<path d="M0 0 C2.46263885 1.84697914 4.59167825 3.45289932 6.5 5.875 C6.25 8.125 6.25 8.125 5.5 9.875 C6.44875 10.143125 7.3975 10.41125 8.375 10.6875 C11.5 11.875 11.5 11.875 13.5 14.875 C9.55229304 17.50680464 6.76019851 16.6758948 2.3125 16 C1.56291016 15.89558594 0.81332031 15.79117188 0.04101562 15.68359375 C-1.80749204 15.4245672 -3.65397432 15.15116034 -5.5 14.875 C-6.49 17.35 -6.49 17.35 -7.5 19.875 C-5.19 20.865 -2.88 21.855 -0.5 22.875 C-0.5 23.535 -0.5 24.195 -0.5 24.875 C3.13 24.875 6.76 24.875 10.5 24.875 C10.83 27.185 11.16 29.495 11.5 31.875 C9.9221875 31.8440625 9.9221875 31.8440625 8.3125 31.8125 C4.64519217 31.75820335 4.64519217 31.75820335 1.6875 32.4375 C-0.5 32.875 -0.5 32.875 -2.5 31.875 C-2.5 31.215 -2.5 30.555 -2.5 29.875 C-1.18 29.545 0.14 29.215 1.5 28.875 C1.5 28.215 1.5 27.555 1.5 26.875 C0.71625 26.565625 -0.0675 26.25625 -0.875 25.9375 C-3.5 24.875 -3.5 24.875 -5.5 23.875 C-7.87123246 23.64470044 -10.24741943 23.46380058 -12.625 23.3125 C-13.90632813 23.22871094 -15.18765625 23.14492187 -16.5078125 23.05859375 C-17.98894531 22.96771484 -17.98894531 22.96771484 -19.5 22.875 C-19.17 21.555 -18.84 20.235 -18.5 18.875 C-17.51 18.875 -16.52 18.875 -15.5 18.875 C-15.355625 18.1325 -15.21125 17.39 -15.0625 16.625 C-14.5 13.875 -14.5 13.875 -13.8125 11.6875 C-13.6578125 10.7903125 -13.6578125 10.7903125 -13.5 9.875 C-14.16 9.215 -14.82 8.555 -15.5 7.875 C-13.52 7.875 -11.54 7.875 -9.5 7.875 C-9.17 7.215 -8.84 6.555 -8.5 5.875 C-7.51 5.545 -6.52 5.215 -5.5 4.875 C-5.83 3.555 -6.16 2.235 -6.5 0.875 C-3.82510001 -1.00733703 -3.06724937 -1.38026222 0 0 Z " fill="#4E80F1" transform="translate(70.5,48.125)"/>
<path d="M0 0 C1.21236328 0.02707031 1.21236328 0.02707031 2.44921875 0.0546875 C3.37154297 0.08949219 3.37154297 0.08949219 4.3125 0.125 C3.9825 0.785 3.6525 1.445 3.3125 2.125 C2.3225 1.795 1.3325 1.465 0.3125 1.125 C0.3125 1.785 0.3125 2.445 0.3125 3.125 C1.3025 3.455 2.2925 3.785 3.3125 4.125 C3.3125 5.445 3.3125 6.765 3.3125 8.125 C4.3025 8.125 5.2925 8.125 6.3125 8.125 C6.3125 8.785 6.3125 9.445 6.3125 10.125 C7.3025 10.125 8.2925 10.125 9.3125 10.125 C9.3125 11.115 9.3125 12.105 9.3125 13.125 C8.6525 13.125 7.9925 13.125 7.3125 13.125 C7.3125 14.775 7.3125 16.425 7.3125 18.125 C7.9725 18.125 8.6325 18.125 9.3125 18.125 C9.6425 20.105 9.9725 22.085 10.3125 24.125 C13.6125 25.115 16.9125 26.105 20.3125 27.125 C19.625 29.5625 19.625 29.5625 18.3125 32.125 C15.6875 32.9375 15.6875 32.9375 13.3125 33.125 C13.065 32.485625 12.8175 31.84625 12.5625 31.1875 C11.49687567 28.93758459 11.49687567 28.93758459 9.1875 28.375 C8.56875 28.2925 7.95 28.21 7.3125 28.125 C7.3125 27.465 7.3125 26.805 7.3125 26.125 C4.0125 26.125 0.7125 26.125 -2.6875 26.125 C-2.6875 25.795 -2.6875 25.465 -2.6875 25.125 C0.6125 25.125 3.9125 25.125 7.3125 25.125 C7.3125 23.805 7.3125 22.485 7.3125 21.125 C6.52875 21.16625 5.745 21.2075 4.9375 21.25 C2.3125 21.125 2.3125 21.125 0.3125 19.125 C0.1875 16.5 0.1875 16.5 0.3125 14.125 C-0.6775 14.125 -1.6675 14.125 -2.6875 14.125 C-2.790625 13.485625 -2.89375 12.84625 -3 12.1875 C-3.226875 11.506875 -3.45375 10.82625 -3.6875 10.125 C-4.6775 9.795 -5.6675 9.465 -6.6875 9.125 C-7.0175 6.815 -7.3475 4.505 -7.6875 2.125 C-4.48369983 -0.01086678 -3.66810033 -0.10632175 0 0 Z " fill="#2D63E7" transform="translate(22.6875,67.875)"/>
<path d="M0 0 C1.51849769 0.06282517 3.03673661 0.13214906 4.5546875 0.20703125 C5.30234375 0.22572266 6.05 0.24441406 6.8203125 0.26367188 C12.38065213 0.53975146 15.84502683 1.82994288 20.4296875 5.01953125 C21.3671875 7.26953125 21.3671875 7.26953125 21.4296875 9.01953125 C18.9546875 8.52453125 18.9546875 8.52453125 16.4296875 8.01953125 C16.4296875 8.67953125 16.4296875 9.33953125 16.4296875 10.01953125 C18.0796875 10.01953125 19.7296875 10.01953125 21.4296875 10.01953125 C21.0996875 11.00953125 20.7696875 11.99953125 20.4296875 13.01953125 C14.11859391 15.18896967 7.56687328 14.06525984 1.4296875 12.01953125 C1.4296875 12.67953125 1.4296875 13.33953125 1.4296875 14.01953125 C0.4396875 14.01953125 -0.5503125 14.01953125 -1.5703125 14.01953125 C-1.9003125 14.67953125 -2.2303125 15.33953125 -2.5703125 16.01953125 C-2.5703125 12.01953125 -2.5703125 12.01953125 -1.5703125 10.01953125 C-2.2303125 10.01953125 -2.8903125 10.01953125 -3.5703125 10.01953125 C-3.76443431 8.54121904 -3.95043381 7.06183809 -4.1328125 5.58203125 C-4.23722656 4.75832031 -4.34164062 3.93460937 -4.44921875 3.0859375 C-4.48917969 2.40402344 -4.52914062 1.72210938 -4.5703125 1.01953125 C-3.5703125 0.01953125 -3.5703125 0.01953125 0 0 Z " fill="#4E80F1" transform="translate(51.5703125,69.98046875)"/>
<path d="M0 0 C1.0625 2.8125 1.0625 2.8125 2 6 C2.37125 6.7425 2.7425 7.485 3.125 8.25 C4 10 4 10 4 12 C4.66 12.66 5.32 13.32 6 14 C8 16 8 16 8 18 C9.98 18 11.96 18 14 18 C13.67 17.34 13.34 16.68 13 16 C12.92966231 14.12620395 12.9156978 12.24998898 12.9375 10.375 C12.94652344 9.37210938 12.95554687 8.36921875 12.96484375 7.3359375 C12.97644531 6.56507812 12.98804687 5.79421875 13 5 C18.27749285 5.53851968 22.25645564 6.77343836 27 9 C26.01 9.99 25.02 10.98 24 12 C22.35 11.34 20.7 10.68 19 10 C18.01 11.65 17.02 13.3 16 15 C16.99 15 17.98 15 19 15 C17.97616342 18.07150973 17.5638851 19.13885 15 21 C12.08203125 21.29296875 12.08203125 21.29296875 8.8125 21.1875 C7.72582031 21.16042969 6.63914062 21.13335937 5.51953125 21.10546875 C4.27236328 21.05326172 4.27236328 21.05326172 3 21 C3 20.34 3 19.68 3 19 C2.01 19 1.02 19 0 19 C-0.12375 18.360625 -0.2475 17.72125 -0.375 17.0625 C-0.58125 16.381875 -0.7875 15.70125 -1 15 C-1.66 14.67 -2.32 14.34 -3 14 C-3 13.34 -3 12.68 -3 12 C-5.42797311 12 -7.62907005 12.50085685 -10 13 C-9.690625 11.948125 -9.38125 10.89625 -9.0625 9.8125 C-7.96022582 6.19830565 -7.96022582 6.19830565 -7.625 3.1875 C-7 1 -7 1 -5.125 -0.375 C-3 -1 -3 -1 0 0 Z " fill="#4A76D9" transform="translate(26,57)"/>
<path d="M0 0 C1.32 0.66 2.64 1.32 4 2 C3.8453125 3.0828125 3.8453125 3.0828125 3.6875 4.1875 C4.12400412 8.11603704 6.19863304 9.33528509 9 12 C10.13399946 14.4947988 10.16639838 15.45088535 9.375 18.0625 C7.46240219 20.75752419 6.09077696 21.75053697 3 23 C-0.05597244 22.94872529 -2.99540969 22.54331372 -6 22 C-5.34 21.67 -4.68 21.34 -4 21 C-4.7115625 19.39125 -4.7115625 19.39125 -5.4375 17.75 C-7.76881849 12.24061054 -8.09968724 7.98123461 -8 2 C-6.68 2 -5.36 2 -4 2 C-3 7.75 -3 7.75 -3 10 C-2.67 9.34 -2.34 8.68 -2 8 C-1.34 8 -0.68 8 0 8 C-0.185625 7.05125 -0.37125 6.1025 -0.5625 5.125 C-1 2 -1 2 0 0 Z " fill="#346AE7" transform="translate(100,47)"/>
<path d="M0 0 C1.32 0.33 2.64 0.66 4 1 C3.98839844 1.66386719 3.97679688 2.32773438 3.96484375 3.01171875 C3.88106591 9.56306787 3.88106591 9.56306787 5 16 C4.34 16 3.68 16 3 16 C3 16.99 3 17.98 3 19 C1.68 19 0.36 19 -1 19 C-1.33 21.31 -1.66 23.62 -2 26 C-3.32 26.33 -4.64 26.66 -6 27 C-5.67 25.35 -5.34 23.7 -5 22 C-6.32 22.33 -7.64 22.66 -9 23 C-9 21.68 -9 20.36 -9 19 C-9.99 19 -10.98 19 -12 19 C-12.67464772 16.03155004 -13.14843292 13.68650224 -12.5 10.6875 C-10.11366526 8.00287342 -7.45294943 8.24663924 -4 8 C-3.34 8 -2.68 8 -2 8 C-2 7.34 -2 6.68 -2 6 C-1.34 6 -0.68 6 0 6 C0 4.02 0 2.04 0 0 Z " fill="#4072E6" transform="translate(82,75)"/>
<path d="M0 0 C0.99 0 1.98 0 3 0 C3 1.32 3 2.64 3 4 C3.66 4 4.32 4 5 4 C5 3.34 5 2.68 5 2 C5.66 2 6.32 2 7 2 C7 2.99 7 3.98 7 5 C7.66 5 8.32 5 9 5 C8.979375 5.928125 8.95875 6.85625 8.9375 7.8125 C8.84230396 11.02286011 8.84230396 11.02286011 10 14 C7.69 14.33 5.38 14.66 3 15 C3 16.32 3 17.64 3 19 C2.01 19 1.02 19 0 19 C-0.33 17.02 -0.66 15.04 -1 13 C-2.65 13 -4.3 13 -6 13 C-6 12.34 -6 11.68 -6 11 C-7.65 10.67 -9.3 10.34 -11 10 C-11 8.68 -11 7.36 -11 6 C-9.46875 4.515625 -9.46875 4.515625 -7.5 3.25 C-6.8503125 2.82203125 -6.200625 2.3940625 -5.53125 1.953125 C-5.0259375 1.63859375 -4.520625 1.3240625 -4 1 C-3.67 1.99 -3.34 2.98 -3 4 C-0.94729537 2.15811388 -0.94729537 2.15811388 0 0 Z " fill="#3161D5" transform="translate(63,19)"/>
<path d="M0 0 C0 0.66 0 1.32 0 2 C1.32 2.33 2.64 2.66 4 3 C3.38125 3.061875 2.7625 3.12375 2.125 3.1875 C-0.27761141 3.828919 -0.27761141 3.828919 -1.25 6.5625 C-1.4975 7.366875 -1.745 8.17125 -2 9 C1.465 10.485 1.465 10.485 5 12 C5 12.66 5 13.32 5 14 C8.63 14 12.26 14 16 14 C16.33 16.31 16.66 18.62 17 21 C15.948125 20.979375 14.89625 20.95875 13.8125 20.9375 C10.14519217 20.88320335 10.14519217 20.88320335 7.1875 21.5625 C5 22 5 22 3 21 C3 20.34 3 19.68 3 19 C4.32 18.67 5.64 18.34 7 18 C7 17.34 7 16.68 7 16 C6.21625 15.690625 5.4325 15.38125 4.625 15.0625 C2 14 2 14 0 13 C-2.37123246 12.76970044 -4.74741943 12.58880058 -7.125 12.4375 C-8.40632813 12.35371094 -9.68765625 12.26992187 -11.0078125 12.18359375 C-11.99523438 12.12300781 -12.98265625 12.06242187 -14 12 C-13.67 10.68 -13.34 9.36 -13 8 C-12.01 8 -11.02 8 -10 8 C-9.814375 6.824375 -9.814375 6.824375 -9.625 5.625 C-9 3 -9 3 -7 1 C-4.49940039 0.19335496 -2.66053211 0 0 0 Z " fill="#5D88EF" transform="translate(65,59)"/>
<path d="M0 0 C0.66 0.99 1.32 1.98 2 3 C4.05925139 3.72382467 4.05925139 3.72382467 6 4 C6.33 5.98 6.66 7.96 7 10 C6.34 10 5.68 10 5 10 C5 10.66 5 11.32 5 12 C4.34 12 3.68 12 3 12 C3 13.65 3 15.3 3 17 C4.32 17 5.64 17 7 17 C7 17.66 7 18.32 7 19 C9.64 18.34 12.28 17.68 15 17 C15 17.66 15 18.32 15 19 C15.66 19.33 16.32 19.66 17 20 C16.34 21.32 15.68 22.64 15 24 C11.7 23.67 8.4 23.34 5 23 C5 22.01 5 21.02 5 20 C4.34 19.67 3.68 19.34 3 19 C2.67 19.99 2.34 20.98 2 22 C1.34 22 0.68 22 0 22 C-0.33 23.32 -0.66 24.64 -1 26 C-1.66 26 -2.32 26 -3 26 C-2.979375 27.11375 -2.95875 28.2275 -2.9375 29.375 C-3 33 -3 33 -4 35 C-4.66 35 -5.32 35 -6 35 C-6.31304572 26.66950563 -6.33532031 17.89145541 -1 11 C-0.34 11 0.32 11 1 11 C1.33 9.02 1.66 7.04 2 5 C1.34 5 0.68 5 0 5 C0 3.35 0 1.7 0 0 Z " fill="#4B6EBF" transform="translate(22,32)"/>
<path d="M0 0 C9.34562269 1.65809435 17.692693 4.64147516 24 12 C22.69363006 14.61273988 21.71590242 14.97236124 19 16 C16.25 16.5625 16.25 16.5625 13 16 C7.50535939 12.35129955 3.4773534 7.54203198 0 2 C0 1.34 0 0.68 0 0 Z " fill="#3061D8" transform="translate(46,94)"/>
<path d="M0 0 C1 3 1 3 1 5 C2.134375 5.474375 3.26875 5.94875 4.4375 6.4375 C8 8 8 8 9 9 C9.1875 11.9375 9.1875 11.9375 9 15 C6.23776722 17.76223278 3.79293383 17.57856291 0 18 C0 17.01 0 16.02 0 15 C-0.66 15 -1.32 15 -2 15 C-2 14.34 -2 13.68 -2 13 C-4.64 13.66 -7.28 14.32 -10 15 C-10 14.34 -10 13.68 -10 13 C-11.32 13 -12.64 13 -14 13 C-14 11.68 -14 10.36 -14 9 C-10.37 9 -6.74 9 -3 9 C-2.87625 7.88625 -2.7525 6.7725 -2.625 5.625 C-2 2 -2 2 0 0 Z " fill="#5B8AEE" transform="translate(39,36)"/>
<path d="M0 0 C3.29714793 0.32971479 4.6226839 0.6226839 7 3 C7.125 5.625 7.125 5.625 7 8 C7.99 8 8.98 8 10 8 C9.67 5.69 9.34 3.38 9 1 C12.23265758 5.84898637 13.3231456 11.18337916 13 17 C13 18.32 13 19.64 13 21 C12.72116193 24.0074678 12.35295438 26.99988781 12 30 C8.37 29.34 4.74 28.68 1 28 C1.33 26.35 1.66 24.7 2 23 C4.4375 21.75 4.4375 21.75 7 21 C9.13701805 20.20063358 9.13701805 20.20063358 9.75 18.25 C10.07678657 15.3089209 9.33916144 13.60784069 8 11 C7.34 10.67 6.68 10.34 6 10 C6 9.34 6 8.68 6 8 C5.34 7.67 4.68 7.34 4 7 C3.5 4.5 3.5 4.5 3 2 C2.34 1.67 1.68 1.34 1 1 C1 3.64 1 6.28 1 9 C0.34 9 -0.32 9 -1 9 C-1.66 10.32 -2.32 11.64 -3 13 C-4.07610988 9.77167035 -3.93935312 9.0998653 -3 6 C-2.855625 5.29875 -2.71125 4.5975 -2.5625 3.875 C-2 2 -2 2 0 0 Z " fill="#3B63DA" transform="translate(99,46)"/>
<path d="M0 0 C7.40121138 1.30609613 12.84551431 3.38801558 18 9 C18 9.66 18 10.32 18 11 C18.99 11.33 19.98 11.66 21 12 C20.67 13.32 20.34 14.64 20 16 C6.58885838 13.4358572 6.58885838 13.4358572 2.890625 10.09375 C0.56786609 6.4319889 0 4.4248295 0 0 Z " fill="#3162D9" transform="translate(81,23)"/>
<path d="M0 0 C-1.34850493 3.1465115 -2.67234792 4.70729432 -5.4375 6.6875 C-9.62186886 10.07858227 -10.80316413 13.87070339 -12 19 C-12.33 19 -12.66 19 -13 19 C-13 17.35 -13 15.7 -13 14 C-18.94 14.495 -18.94 14.495 -25 15 C-25 13.35 -25 11.7 -25 10 C-23.329375 9.87625 -23.329375 9.87625 -21.625 9.75 C-20.42875 9.5025 -19.2325 9.255 -18 9 C-17.31712395 7.67489528 -16.65158763 6.34076686 -16 5 C-14.1953125 3.76953125 -14.1953125 3.76953125 -12.125 2.8125 C-11.44695313 2.48894531 -10.76890625 2.16539063 -10.0703125 1.83203125 C-6.49178482 0.39386824 -3.9137634 0 0 0 Z " fill="#315DBB" transform="translate(55,19)"/>
<path d="M0 0 C2.02045442 0.60183749 4.02111039 1.27306096 6 2 C6.33 2.66 6.66 3.32 7 4 C6.01 4.33 5.02 4.66 4 5 C4.020625 6.0725 4.04125 7.145 4.0625 8.25 C3.9991441 12.05135429 3.68093332 14.63813335 2 18 C1.01 16.68 0.02 15.36 -1 14 C-1 14.66 -1 15.32 -1 16 C-1.9075 15.814375 -2.815 15.62875 -3.75 15.4375 C-6.68314324 15.04265379 -8.2644657 15.05308428 -11 16 C-11 16.66 -11 17.32 -11 18 C-10.01 18 -9.02 18 -8 18 C-8 19.98 -8 21.96 -8 24 C-9.65 23.67 -11.3 23.34 -13 23 C-12.67 22.01 -12.34 21.02 -12 20 C-12.66 20 -13.32 20 -14 20 C-14 18.35 -14 16.7 -14 15 C-13.34 15 -12.68 15 -12 15 C-12 14.01 -12 13.02 -12 12 C-11.38511719 11.97421875 -10.77023438 11.9484375 -10.13671875 11.921875 C-5.00745409 11.7185352 -5.00745409 11.7185352 -0.9375 8.9375 C-0.628125 8.298125 -0.31875 7.65875 0 7 C-0.99 6.67 -1.98 6.34 -3 6 C-2.01 4.02 -1.02 2.04 0 0 Z " fill="#386FED" transform="translate(44,66)"/>
<path d="M0 0 C3.96 0 7.92 0 12 0 C12.33 2.97 12.66 5.94 13 9 C15.31 9.33 17.62 9.66 20 10 C20 11.65 20 13.3 20 15 C17.125 15.625 17.125 15.625 14 16 C13.34 15.34 12.68 14.68 12 14 C12 13.01 12 12.02 12 11 C11.236875 10.896875 10.47375 10.79375 9.6875 10.6875 C6.81583516 9.95288806 5.76957906 9.3283935 4 7 C4 6.34 4 5.68 4 5 C2.68 4.34 1.36 3.68 0 3 C0 2.01 0 1.02 0 0 Z " fill="#3E73E9" transform="translate(71,39)"/>
<path d="M0 0 C3.3 0 6.6 0 10 0 C10.33 3.3 10.66 6.6 11 10 C9.7625 9.9175 8.525 9.835 7.25 9.75 C3.89493302 9.7262052 3.24552096 9.80358323 0.5 12 C0.005 12.66 -0.49 13.32 -1 14 C-0.34 14.33 0.32 14.66 1 15 C0 16 0 16 -2.5625 16.0625 C-3.366875 16.041875 -4.17125 16.02125 -5 16 C-5 14.68 -5 13.36 -5 12 C-4.01 11.34 -3.02 10.68 -2 10 C-1.20201782 7.58392583 -1.20201782 7.58392583 -0.8125 4.875 C-0.4103125 2.461875 -0.4103125 2.461875 0 0 Z " fill="#3267E5" transform="translate(88,86)"/>
<path d="M0 0 C0.66 0.33 1.32 0.66 2 1 C1.89300781 1.68707031 1.78601563 2.37414062 1.67578125 3.08203125 C1.49595703 4.43361328 1.49595703 4.43361328 1.3125 5.8125 C1.18488281 6.70582031 1.05726562 7.59914063 0.92578125 8.51953125 C0.77616254 11.0263145 0.77616254 11.0263145 2.25 12.8125 C5.03476181 14.7021598 7.74068562 14.18448949 11 14 C10.195625 13.2575 9.39125 12.515 8.5625 11.75 C6.23011409 9.24695171 5.36465606 8.2819045 5 5 C5.99 4.67 6.98 4.34 8 4 C8.77772405 6.33317216 9.42415568 8.61435923 10 11 C11.65 11.33 13.3 11.66 15 12 C15 14.31 15 16.62 15 19 C15.8971875 19.0928125 15.8971875 19.0928125 16.8125 19.1875 C19.87143458 20.3236757 20.55041099 22.17330142 22 25 C19.49693388 23.88752617 17.86253662 22.86657966 15.875 20.9375 C12.79303567 18.86052404 11.59623207 18.71876189 8 18.5 C3.49978163 18.22502391 1.18221846 17.38752288 -2 14 C-3.28939122 11.42121756 -2.96551673 9.85485837 -2.6875 7 C-2.60886719 6.113125 -2.53023437 5.22625 -2.44921875 4.3125 C-2 2 -2 2 0 0 Z " fill="#285DB9" transform="translate(15,77)"/>
<path d="M0 0 C1.21236328 0.02707031 1.21236328 0.02707031 2.44921875 0.0546875 C3.37154297 0.08949219 3.37154297 0.08949219 4.3125 0.125 C3.9825 0.785 3.6525 1.445 3.3125 2.125 C2.3225 1.795 1.3325 1.465 0.3125 1.125 C0.3125 1.785 0.3125 2.445 0.3125 3.125 C1.3025 3.455 2.2925 3.785 3.3125 4.125 C2.9825 7.095 2.6525 10.065 2.3125 13.125 C0.6625 13.455 -0.9875 13.785 -2.6875 14.125 C-2.790625 13.485625 -2.89375 12.84625 -3 12.1875 C-3.226875 11.506875 -3.45375 10.82625 -3.6875 10.125 C-4.6775 9.795 -5.6675 9.465 -6.6875 9.125 C-7.0175 6.815 -7.3475 4.505 -7.6875 2.125 C-4.48369983 -0.01086678 -3.66810033 -0.10632175 0 0 Z " fill="#3568E4" transform="translate(22.6875,67.875)"/>
<path d="M0 0 C7.96588869 -0.62477558 7.96588869 -0.62477558 12 1.8125 C15.90897676 6.08794333 15.04583935 10.62547788 14.9375 16.08984375 C14.99161771 18.60969957 15.26206437 20.60747431 16 23 C15.19949219 22.70996094 15.19949219 22.70996094 14.3828125 22.4140625 C10.13769289 20.93047398 6.14383915 19.82979554 1.6875 19.1875 C-2.55239001 18.4291993 -2.55239001 18.4291993 -4.51953125 16.54296875 C-5.625 14.875 -5.625 14.875 -7 12 C-6.67 11.34 -6.34 10.68 -6 10 C-5.66355469 10.77730469 -5.32710938 11.55460937 -4.98046875 12.35546875 C-2.32969578 15.89506106 0.55916233 16.42207423 4.6875 17.3125 C5.38939453 17.48072266 6.09128906 17.64894531 6.81445312 17.82226562 C8.53878716 18.23282135 10.26892511 18.61886543 12 19 C12 18.01 12 17.02 12 16 C11.34 15.34 10.68 14.68 10 14 C10.66 14 11.32 14 12 14 C11.74337755 12.55989519 11.46909179 11.1229313 11.1875 9.6875 C11.03667969 8.88699219 10.88585937 8.08648437 10.73046875 7.26171875 C9.90155596 4.69519197 9.14265057 3.61709477 7 2 C3.38976901 1.26958147 3.38976901 1.26958147 0 1 C0 0.67 0 0.34 0 0 Z " fill="#3457A9" transform="translate(89,19)"/>
<path d="M0 0 C4.44748044 3.41318266 8.46258111 6.90177587 11 12 C11 15.09521862 10.59936071 16.3224618 8.5625 18.625 C7.7890625 19.305625 7.7890625 19.305625 7 20 C6.34 20.99 5.68 21.98 5 23 C5 22.34 5 21.68 5 21 C4.484375 21.185625 3.96875 21.37125 3.4375 21.5625 C0.14091261 22.15419517 -2.72245735 21.567267 -6 21 C-5.67 20.34 -5.34 19.68 -5 19 C-4.29875 19.2475 -3.5975 19.495 -2.875 19.75 C1.14531402 20.09959252 2.88338362 18.39182187 6 16 C1.05 14.02 1.05 14.02 -4 12 C-1 11 -1 11 2.0625 11.5625 C3.031875 11.706875 4.00125 11.85125 5 12 C5.66 11.34 6.32 10.68 7 10 C3.535 8.02 3.535 8.02 0 6 C0 4.02 0 2.04 0 0 Z " fill="#5276D0" transform="translate(76,52)"/>
<path d="M0 0 C0.66 0 1.32 0 2 0 C2.33 3.63 2.66 7.26 3 11 C2.34 11 1.68 11 1 11 C0.67 12.32 0.34 13.64 0 15 C-0.66 15 -1.32 15 -2 15 C-1.979375 16.11375 -1.95875 17.2275 -1.9375 18.375 C-2 22 -2 22 -3 24 C-3.66 24 -4.32 24 -5 24 C-5.31304572 15.66950563 -5.33532031 6.89145541 0 0 Z " fill="#3F5EBB" transform="translate(21,43)"/>
<path d="M0 0 C2.97 0.495 2.97 0.495 6 1 C6 1.99 6 2.98 6 4 C6.45375 4.433125 6.9075 4.86625 7.375 5.3125 C10.57688462 8.63753403 10.98044185 12.39369738 11.125 16.875 C11.08375 17.90625 11.0425 18.9375 11 20 C8.67778127 16.22639456 9 14.98800589 9 10 C3.06 10.495 3.06 10.495 -3 11 C-3.33 9.35 -3.66 7.7 -4 6 C-2.515 6.99 -2.515 6.99 -1 8 C-0.34 7.67 0.32 7.34 1 7 C0.01 6.01 -0.98 5.02 -2 4 C-1.34 2.68 -0.68 1.36 0 0 Z " fill="#4068C4" transform="translate(89,76)"/>
<path d="M0 0 C1.0625 2.8125 1.0625 2.8125 2 6 C2.37125 6.7425 2.7425 7.485 3.125 8.25 C4 10 4 10 4 12 C5.29233607 13.37310707 6.62437146 14.71034824 8 16 C7.67 16.66 7.34 17.32 7 18 C6.34 18 5.68 18 5 18 C2.55954927 14.54269479 1.21934486 11.03321763 0 7 C-1.99983534 7.79117904 -1.99983534 7.79117904 -4 9 C-4.33 9.99 -4.66 10.98 -5 12 C-6.65 12.33 -8.3 12.66 -10 13 C-9.690625 11.948125 -9.38125 10.89625 -9.0625 9.8125 C-7.96022582 6.19830565 -7.96022582 6.19830565 -7.625 3.1875 C-7 1 -7 1 -5.125 -0.375 C-3 -1 -3 -1 0 0 Z " fill="#4069D0" transform="translate(26,57)"/>
<path d="M0 0 C1.7325 0.7425 1.7325 0.7425 3.5 1.5 C10.45772055 3.87880334 17.75035778 3.2401722 25 3 C24.67 3.66 24.34 4.32 24 5 C21.67843403 5.40729228 19.3431213 5.74438677 17 6 C17.33 6.99 17.66 7.98 18 9 C14.85262818 8.30058404 11.97411124 7.23921302 9 6 C9.33 7.98 9.66 9.96 10 12 C9.236875 11.21625 8.47375 10.4325 7.6875 9.625 C4.69453283 6.70163672 1.73407407 4.80265645 -2 3 C-1.34 2.01 -0.68 1.02 0 0 Z " fill="#4268C0" transform="translate(72,17)"/>
<path d="M0 0 C3.52069985 0.58678331 5.71299843 1.35649921 9 3 C9 7.29 9 11.58 9 16 C5.09638512 14.69879504 4.72586252 13.25438569 2.8125 9.6875 C2.28269531 8.72199219 1.75289062 7.75648437 1.20703125 6.76171875 C0 4 0 4 0 0 Z " fill="#466ED5" transform="translate(28,57)"/>
<path d="M0 0 C0.94875 0.04125 1.8975 0.0825 2.875 0.125 C2.56578116 1.58403258 2.25251201 3.04220722 1.9375 4.5 C1.76347656 5.31210937 1.58945312 6.12421875 1.41015625 6.9609375 C0.875 9.125 0.875 9.125 -0.125 11.125 C-3.755 11.125 -7.385 11.125 -11.125 11.125 C-10.465 10.795 -9.805 10.465 -9.125 10.125 C-9.125 9.465 -9.125 8.805 -9.125 8.125 C-8.465 8.125 -7.805 8.125 -7.125 8.125 C-6.83625 7.17625 -6.5475 6.2275 -6.25 5.25 C-4.80291621 1.2303228 -4.35635838 0.17425434 0 0 Z " fill="#3E71E3" transform="translate(36.125,33.875)"/>
<path d="M0 0 C3.87302138 1.14430177 7.00263439 2.23320098 10 5 C10 5.66 10 6.32 10 7 C5.38 8.32 0.76 9.64 -4 11 C-2.875 3.125 -2.875 3.125 0 0 Z " fill="#3864C8" transform="translate(48,30)"/>
<path d="M0 0 C5.32737077 -0.43666974 5.32737077 -0.43666974 8 0 C10.0625 2.375 10.0625 2.375 11 5 C10.67 5.66 10.34 6.32 10 7 C9.01 6.01 8.02 5.02 7 4 C6.01 4.33 5.02 4.66 4 5 C3.67 5.99 3.34 6.98 3 8 C2.01 7.67 1.02 7.34 0 7 C-2.16715557 7.87483915 -2.16715557 7.87483915 -4 9 C-4.99 7.35 -5.98 5.7 -7 4 C-4 2 -4 2 -1 2 C-0.67 1.34 -0.34 0.68 0 0 Z " fill="#3C70EA" transform="translate(54,40)"/>
<path d="M0 0 C3.63 0 7.26 0 11 0 C14 6.625 14 6.625 14 10 C14.66 10 15.32 10 16 10 C15.34 7.03 14.68 4.06 14 1 C21.84332714 1.33614259 27.21339831 3.08687434 34 7 C32 8 32 8 28.875 7.0625 C27.92625 6.711875 26.9775 6.36125 26 6 C26 5.34 26 4.68 26 4 C21.545 4.495 21.545 4.495 17 5 C17.185625 5.804375 17.37125 6.60875 17.5625 7.4375 C17.706875 8.283125 17.85125 9.12875 18 10 C17 11 17 11 14.4375 11.0625 C13.633125 11.041875 12.82875 11.02125 12 11 C11.34 8.03 10.68 5.06 10 2 C6.7 1.67 3.4 1.34 0 1 C0 0.67 0 0.34 0 0 Z " fill="#4869B9" transform="translate(72,37)"/>
<path d="M0 0 C0 1.98 0 3.96 0 6 C1.65 5.67 3.3 5.34 5 5 C5 5.66 5 6.32 5 7 C5.66 7 6.32 7 7 7 C7 7.99 7 8.98 7 10 C5.18674449 9.88648483 3.37436643 9.75887039 1.5625 9.625 C0.55316406 9.55539063 -0.45617187 9.48578125 -1.49609375 9.4140625 C-2.32238281 9.27742188 -3.14867188 9.14078125 -4 9 C-4.33 8.34 -4.66 7.68 -5 7 C-5.99 6.67 -6.98 6.34 -8 6 C-8 5.34 -8 4.68 -8 4 C-10.64 4.33 -13.28 4.66 -16 5 C-16 4.34 -16 3.68 -16 3 C-15.39671875 2.95101562 -14.7934375 2.90203125 -14.171875 2.8515625 C-13.37265625 2.77679688 -12.5734375 2.70203125 -11.75 2.625 C-10.56664062 2.52058594 -10.56664062 2.52058594 -9.359375 2.4140625 C-5.82965169 1.79460775 -3.65623331 0 0 0 Z " fill="#5784ED" transform="translate(73,55)"/>
<path d="M0 0 C1.32 0.33 2.64 0.66 4 1 C3.67 3.64 3.34 6.28 3 9 C1.02 9 -0.96 9 -3 9 C-3.33 9.99 -3.66 10.98 -4 12 C-4.99 12.33 -5.98 12.66 -7 13 C-8.0409066 14.64142963 -9.04504326 16.30712215 -10 18 C-10.33 18 -10.66 18 -11 18 C-12.32296047 11.62573591 -12.32296047 11.62573591 -11 9.0625 C-8.00926074 7.47366977 -5.31998061 7.81207657 -2 8 C-2 7.34 -2 6.68 -2 6 C-1.34 6 -0.68 6 0 6 C0 4.02 0 2.04 0 0 Z " fill="#4573E4" transform="translate(82,75)"/>
<path d="M0 0 C0.66 0.33 1.32 0.66 2 1 C2.73075648 3.3140622 3.40138258 5.64828869 4 8 C3.01 7.34 2.02 6.68 1 6 C1 5.34 1 4.68 1 4 C-0.65 4.33 -2.3 4.66 -4 5 C-3.67 7.31 -3.34 9.62 -3 12 C-4.32 12.99 -5.64 13.98 -7 15 C-7.99 14.34 -8.98 13.68 -10 13 C-10 12.01 -10 11.02 -10 10 C-9.34 10 -8.68 10 -8 10 C-7.67 8.35 -7.34 6.7 -7 5 C-7.99 5 -8.98 5 -10 5 C-10 4.34 -10 3.68 -10 3 C-4.375 1 -4.375 1 -1 1 C-0.67 0.67 -0.34 0.34 0 0 Z " fill="#356BE7" transform="translate(43,79)"/>
<path d="M0 0 C2.64 0 5.28 0 8 0 C7.56744475 5.40694067 6.41778487 8.75366122 3 13 C2.34 13 1.68 13 1 13 C0.1276588 10.00519083 -0.10829766 7.36424089 -0.0625 4.25 C-0.05347656 3.45078125 -0.04445313 2.6515625 -0.03515625 1.828125 C-0.02355469 1.22484375 -0.01195313 0.6215625 0 0 Z " fill="#3866DD" transform="translate(100,79)"/>
<path d="M0 0 C0 0.66 0 1.32 0 2 C1.32 2.33 2.64 2.66 4 3 C2.68 3.33 1.36 3.66 0 4 C-0.66 6.31 -1.32 8.62 -2 11 C-4.97 10.505 -4.97 10.505 -8 10 C-8.33 9.01 -8.66 8.02 -9 7 C-8.34 7 -7.68 7 -7 7 C-7 5.02 -7 3.04 -7 1 C-4.50935112 0.31292445 -2.62113708 0 0 0 Z " fill="#AFC6F9" transform="translate(65,59)"/>
<path d="M0 0 C0.33 1.32 0.66 2.64 1 4 C2.65 4.33 4.3 4.66 6 5 C6 5.66 6 6.32 6 7 C7.65 7 9.3 7 11 7 C11.66 9.64 12.32 12.28 13 15 C9.7 15 6.4 15 3 15 C2.67 15.99 2.34 16.98 2 18 C-2.49885947 18.86516528 -5.01647791 19.30903272 -9 17 C-6.41806023 16.32749476 -3.83467929 15.66182099 -1.25 15 C-0.52039062 14.80921875 0.20921875 14.6184375 0.9609375 14.421875 C4.44571646 13.53484036 7.38123722 13 11 13 C10.32550377 9.84867348 10.32550377 9.84867348 7.75 8.75390625 C5.91761528 7.96004639 4.0842803 7.16837632 2.25 6.37890625 C0 5 0 5 -0.875 2.90234375 C-0.91625 2.27457031 -0.9575 1.64679687 -1 1 C-0.67 0.67 -0.34 0.34 0 0 Z " fill="#3F67B7" transform="translate(51,25)"/>
<path d="M0 0 C0.33 0.99 0.66 1.98 1 3 C2.65 2.34 4.3 1.68 6 1 C6.33 1.99 6.66 2.98 7 4 C7.99 4 8.98 4 10 4 C9.67 5.65 9.34 7.3 9 9 C7.02 9.33 5.04 9.66 3 10 C3 9.01 3 8.02 3 7 C2.071875 7.061875 1.14375 7.12375 0.1875 7.1875 C-3 7 -3 7 -4.875 5.5 C-5.24625 5.005 -5.6175 4.51 -6 4 C-4.35 4 -2.7 4 -1 4 C-0.67 2.68 -0.34 1.36 0 0 Z " fill="#2A58D5" transform="translate(67,93)"/>
<path d="M0 0 C3.29714793 0.32971479 4.6226839 0.6226839 7 3 C7.125 5.625 7.125 5.625 7 8 C7.99 8 8.98 8 10 8 C10.33 9.98 10.66 11.96 11 14 C9.2925002 12.71937515 7.62626404 11.38232443 6 10 C6 9.34 6 8.68 6 8 C5.34 7.67 4.68 7.34 4 7 C3.5 4.5 3.5 4.5 3 2 C2.34 1.67 1.68 1.34 1 1 C1 3.64 1 6.28 1 9 C0.34 9 -0.32 9 -1 9 C-1.66 10.32 -2.32 11.64 -3 13 C-4.07610988 9.77167035 -3.93935312 9.0998653 -3 6 C-2.855625 5.29875 -2.71125 4.5975 -2.5625 3.875 C-2 2 -2 2 0 0 Z " fill="#2650C2" transform="translate(99,46)"/>
<path d="M0 0 C2.97 0.33 5.94 0.66 9 1 C9.33 3.31 9.66 5.62 10 8 C9.34 6.68 8.68 5.36 8 4 C7.01 4 6.02 4 5 4 C4.34 5.65 3.68 7.3 3 9 C0.03 8.505 0.03 8.505 -3 8 C-3 7.01 -3 6.02 -3 5 C-2.01 5 -1.02 5 0 5 C0 3.35 0 1.7 0 0 Z " fill="#3F71E6" transform="translate(60,24)"/>
<path d="M0 0 C0.33 0 0.66 0 1 0 C1 1.65 1 3.3 1 5 C0.34 5 -0.32 5 -1 5 C0.67020423 7.00854143 1.60074516 7.91317453 4.19140625 8.4765625 C5.36509766 8.55003906 5.36509766 8.55003906 6.5625 8.625 C10.84 8.92 10.84 8.92 13 10 C13 10.66 13 11.32 13 12 C12.32582031 11.84660156 11.65164062 11.69320312 10.95703125 11.53515625 C7.53122048 10.91516143 4.16106553 10.6647426 0.6875 10.4375 C-0.56675781 10.35371094 -1.82101563 10.26992187 -3.11328125 10.18359375 C-4.06589844 10.12300781 -5.01851562 10.06242187 -6 10 C-5.67 8.68 -5.34 7.36 -5 6 C-4.01 6 -3.02 6 -2 6 C-1.855625 5.195625 -1.71125 4.39125 -1.5625 3.5625 C-1 1 -1 1 0 0 Z " fill="#7192E2" transform="translate(57,61)"/>
<path d="M0 0 C0.66 0 1.32 0 2 0 C2.66 2.31 3.32 4.62 4 7 C1.69 7.33 -0.62 7.66 -3 8 C-3 9.32 -3 10.64 -3 12 C-3.99 12 -4.98 12 -6 12 C-6.76443018 9.24805136 -7.1568112 7.51320029 -6.3125 4.75 C-5 3 -5 3 -2.875 2.25 C-2.25625 2.1675 -1.6375 2.085 -1 2 C-0.67 2.66 -0.34 3.32 0 4 C0 2.68 0 1.36 0 0 Z " fill="#3466E2" transform="translate(69,26)"/>
<path d="M0 0 C0 2.64 0 5.28 0 8 C-2.31 8 -4.62 8 -7 8 C-7 7.01 -7 6.02 -7 5 C-7.99 4.67 -8.98 4.34 -10 4 C-8 1 -8 1 -5 0.3125 C-2 0 -2 0 0 0 Z " fill="#3A6BE4" transform="translate(66,89)"/>
<path d="M0 0 C1.32 0.66 2.64 1.32 4 2 C4.125 4.875 4.125 4.875 4 8 C1.4345406 10.5654594 -0.47686668 10.54046087 -4 11 C-3.67 9.35 -3.34 7.7 -3 6 C-2.34 6 -1.68 6 -1 6 C-0.67 4.02 -0.34 2.04 0 0 Z " fill="#8BADFD" transform="translate(44,43)"/>
<path d="M0 0 C1.32 0 2.64 0 4 0 C4.33 0.66 4.66 1.32 5 2 C6.65 2 8.3 2 10 2 C9.67 2.66 9.34 3.32 9 4 C10.65 4.33 12.3 4.66 14 5 C14 5.33 14 5.66 14 6 C12.2984375 6.2165625 12.2984375 6.2165625 10.5625 6.4375 C7.19222799 6.61171478 7.19222799 6.61171478 6 8 C7.32 8.66 8.64 9.32 10 10 C7.36 10.33 4.72 10.66 2 11 C2 8 2 8 4 6 C2.35 5.01 0.7 4.02 -1 3 C-0.34 2.67 0.32 2.34 1 2 C1.66 2.33 2.32 2.66 3 3 C3 2.34 3 1.68 3 1 C2.01 0.67 1.02 0.34 0 0 Z " fill="#3B61B4" transform="translate(66,100)"/>
<path d="M0 0 C0.598125 0.639375 1.19625 1.27875 1.8125 1.9375 C3.90810337 4.20310389 3.90810337 4.20310389 7 5 C5.35 6.32 3.7 7.64 2 9 C3.98 9 5.96 9 8 9 C8.33 8.34 8.66 7.68 9 7 C9 7.66 9 8.32 9 9 C9.804375 9.12375 10.60875 9.2475 11.4375 9.375 C12.283125 9.58125 13.12875 9.7875 14 10 C14.33 10.66 14.66 11.32 15 12 C11.7 11.34 8.4 10.68 5 10 C4.67 10.66 4.34 11.32 4 12 C2.02 11.34 0.04 10.68 -2 10 C-1.67 9.01 -1.34 8.02 -1 7 C-0.34 7 0.32 7 1 7 C0.67 4.69 0.34 2.38 0 0 Z " fill="#325DB6" transform="translate(39,84)"/>
<path d="M0 0 C2.64 0.33 5.28 0.66 8 1 C7.67 3.31 7.34 5.62 7 8 C5.02 7.34 3.04 6.68 1 6 C1 5.01 1 4.02 1 3 C0.34 2.67 -0.32 2.34 -1 2 C-0.67 1.34 -0.34 0.68 0 0 Z " fill="#406BCF" transform="translate(91,95)"/>
<path d="M0 0 C0.99 0 1.98 0 3 0 C3.28780586 3.05074215 3.45787911 5.96183742 3 9 C0.5 11.0625 0.5 11.0625 -2 12 C-3.12377697 8.69564916 -2.89554742 6.9493138 -1.5625 3.75 C-1.27503906 3.04359375 -0.98757812 2.3371875 -0.69140625 1.609375 C-0.46324219 1.07828125 -0.23507813 0.5471875 0 0 Z " fill="#2A5ED3" transform="translate(26,76)"/>
<path d="M0 0 C2.02045442 0.60183749 4.02111039 1.27306096 6 2 C6.33 2.66 6.66 3.32 7 4 C6.01 4.33 5.02 4.66 4 5 C4 6.98 4 8.96 4 11 C3.401875 10.360625 2.80375 9.72125 2.1875 9.0625 C0.09189663 6.79689611 0.09189663 6.79689611 -3 6 C-2.01 4.02 -1.02 2.04 0 0 Z " fill="#4579EF" transform="translate(44,66)"/>
<path d="M0 0 C5.20540698 0.96396425 9.59913433 1.87680501 14 5 C10.93109813 6.53445094 8.29905734 5.54984289 5 5 C5.33 6.32 5.66 7.64 6 9 C2.91910327 6.22719294 1.31224548 3.93673644 0 0 Z " fill="#3059C8" transform="translate(46,94)"/>
<path d="M0 0 C3.23265758 4.84898637 4.3231456 10.18337916 4 16 C4 17.32 4 18.64 4 20 C3.72650938 22.6763011 3.35563563 25.33273279 3 28 C2.67 28 2.34 28 2 28 C2 26.02 2 24.04 2 22 C1.67 22 1.34 22 1 22 C1.01160156 21.24976562 1.02320312 20.49953125 1.03515625 19.7265625 C1.0937829 13.07662583 0.81769308 6.59995127 0 0 Z " fill="#4763B0" transform="translate(108,47)"/>
<path d="M0 0 C-0.33 0.99 -0.66 1.98 -1 3 C-7.75 4 -7.75 4 -10 4 C-10.66 5.32 -11.32 6.64 -12 8 C-12.33 7.34 -12.66 6.68 -13 6 C-15.02463255 5.34786708 -15.02463255 5.34786708 -17 5 C-16.34 4.34 -15.68 3.68 -15 3 C-13 3 -11 3 -9 3 C-8.67 2.01 -8.34 1.02 -8 0 C-5.13822943 -1.43088528 -3.06624227 -0.59991697 0 0 Z " fill="#426BCE" transform="translate(81,80)"/>
<path d="M0 0 C1.258125 0.12375 2.51625 0.2475 3.8125 0.375 C4.87404297 0.47941406 4.87404297 0.47941406 5.95703125 0.5859375 C8 1 8 1 11 3 C10.67 4.98 10.34 6.96 10 9 C9.67 8.01 9.34 7.02 9 6 C6.36 6 3.72 6 1 6 C1 7.65 1 9.3 1 11 C0.34 10.34 -0.32 9.68 -1 9 C-0.625 6.875 -0.625 6.875 0 5 C3.465 4.505 3.465 4.505 7 4 C4.66682784 3.22227595 2.38564077 2.57584432 0 2 C0 1.34 0 0.68 0 0 Z " fill="#4862B5" transform="translate(99,73)"/>
<path d="M0 0 C2.31 0.33 4.62 0.66 7 1 C7 2.65 7 4.3 7 6 C4.125 6.625 4.125 6.625 1 7 C0.34 6.34 -0.32 5.68 -1 5 C-0.625 2.375 -0.625 2.375 0 0 Z " fill="#88ADFA" transform="translate(84,48)"/>
<path d="M0 0 C2.97 0.495 2.97 0.495 6 1 C5.38125 1.763125 4.7625 2.52625 4.125 3.3125 C1.94402948 5.99625809 1.94402948 5.99625809 0 9 C0 8.34 0 7.68 0 7 C-0.7734375 7.2784375 -0.7734375 7.2784375 -1.5625 7.5625 C-4.85908739 8.15419517 -7.72245735 7.567267 -11 7 C-10.67 6.34 -10.34 5.68 -10 5 C-9.29875 5.2475 -8.5975 5.495 -7.875 5.75 C-3.85468598 6.09959252 -2.11661638 4.39182187 1 2 C0.67 1.34 0.34 0.68 0 0 Z " fill="#5675C9" transform="translate(81,66)"/>
<path d="M0 0 C1.32 0.66 2.64 1.32 4 2 C3.979375 2.78375 3.95875 3.5675 3.9375 4.375 C3.81315937 6.98114961 3.81315937 6.98114961 5 9 C3.02 9 1.04 9 -1 9 C-1 9.66 -1 10.32 -1 11 C-1.66 10.67 -2.32 10.34 -3 10 C-2.67 9.34 -2.34 8.68 -2 8 C-1.34 8 -0.68 8 0 8 C-0.185625 7.05125 -0.37125 6.1025 -0.5625 5.125 C-1 2 -1 2 0 0 Z " fill="#3761D0" transform="translate(100,47)"/>
<path d="M0 0 C0.99 1.485 0.99 1.485 2 3 C4.05925139 3.72382467 4.05925139 3.72382467 6 4 C6.33 5.98 6.66 7.96 7 10 C6.34 10 5.68 10 5 10 C5 10.66 5 11.32 5 12 C4.01 12.33 3.02 12.66 2 13 C2 10.36 2 7.72 2 5 C1.34 5 0.68 5 0 5 C0 3.35 0 1.7 0 0 Z " fill="#375FBE" transform="translate(22,32)"/>
<path d="M0 0 C0.66 0 1.32 0 2 0 C2 0.66 2 1.32 2 2 C2.99 2.33 3.98 2.66 5 3 C4.67 4.98 4.34 6.96 4 9 C2.68 9.33 1.36 9.66 0 10 C0.33 8.35 0.66 6.7 1 5 C-0.32 5.33 -1.64 5.66 -3 6 C-3 4.68 -3 3.36 -3 2 C-2.01 2 -1.02 2 0 2 C0 1.34 0 0.68 0 0 Z " fill="#3366E2" transform="translate(76,92)"/>
<path d="M0 0 C0.33 0 0.66 0 1 0 C0.80843773 8.15010393 0.80843773 8.15010393 -2.4375 11.5625 C-5 13 -5 13 -7 13 C-6.67 11.02 -6.34 9.04 -6 7 C-4.68 7 -3.36 7 -2 7 C-2 6.01 -2 5.02 -2 4 C-1.34 4 -0.68 4 0 4 C0 2.68 0 1.36 0 0 Z " fill="#2B59CB" transform="translate(87,87)"/>
<path d="M0 0 C2.64 0.33 5.28 0.66 8 1 C10 6.625 10 6.625 10 10 C9.01 10 8.02 10 7 10 C6.34 8.02 5.68 6.04 5 4 C3.35 3.67 1.7 3.34 0 3 C0 2.01 0 1.02 0 0 Z " fill="#3964D4" transform="translate(99,44)"/>
<path d="M0 0 C2.31 0 4.62 0 7 0 C7 0.99 7 1.98 7 3 C8.32 3.33 9.64 3.66 11 4 C8.69 4.66 6.38 5.32 4 6 C4 5.34 4 4.68 4 4 C2.68 4 1.36 4 0 4 C0 2.68 0 1.36 0 0 Z " fill="#6B99F5" transform="translate(25,45)"/>
<path d="M0 0 C1.9375 0.6875 1.9375 0.6875 4 2 C4.75 4.625 4.75 4.625 5 7 C5.99 7.33 6.98 7.66 8 8 C8 8.66 8 9.32 8 10 C6.02 10 4.04 10 2 10 C2 9.34 2 8.68 2 8 C1.34 8 0.68 8 0 8 C0 5.36 0 2.72 0 0 Z " fill="#3260D5" transform="translate(74,26)"/>
<path d="M0 0 C0.66 0.33 1.32 0.66 2 1 C1.91306859 2.79258558 1.80489496 4.58415144 1.6875 6.375 C1.62949219 7.37273437 1.57148438 8.37046875 1.51171875 9.3984375 C1.34285156 10.25695312 1.17398437 11.11546875 1 12 C0.01 12.66 -0.98 13.32 -2 14 C-3.28939122 11.42121756 -2.96551673 9.85485837 -2.6875 7 C-2.60886719 6.113125 -2.53023437 5.22625 -2.44921875 4.3125 C-2 2 -2 2 0 0 Z " fill="#2E61B1" transform="translate(15,77)"/>
<path d="M0 0 C2.64 0 5.28 0 8 0 C9.625 3.25 9.625 3.25 11 7 C10.1875 9.4375 10.1875 9.4375 9 11 C7 9 7 9 6.875 6.375 C6.91625 5.59125 6.9575 4.8075 7 4 C4.69 3.34 2.38 2.68 0 2 C0 1.34 0 0.68 0 0 Z " fill="#3C67DE" transform="translate(99,56)"/>
<path d="M0 0 C0.99 0 1.98 0 3 0 C3 0.99 3 1.98 3 3 C2.34 3 1.68 3 1 3 C1 4.65 1 6.3 1 8 C1.66 8 2.32 8 3 8 C2.67 9.65 2.34 11.3 2 13 C1.67 12.34 1.34 11.68 1 11 C-0.65 11 -2.3 11 -4 11 C-3.34 9.68 -2.68 8.36 -2 7 C-1.34 7 -0.68 7 0 7 C0 4.69 0 2.38 0 0 Z " fill="#3067E2" transform="translate(29,78)"/>
<path d="M0 0 C-1.32 0.99 -2.64 1.98 -4 3 C-4 1.68 -4 0.36 -4 -1 C-4.99 -1 -5.98 -1 -7 -1 C-7 0.32 -7 1.64 -7 3 C-7.99 3 -8.98 3 -10 3 C-10.33 2.34 -10.66 1.68 -11 1 C-12.65 2.32 -14.3 3.64 -16 5 C-16.66 4.67 -17.32 4.34 -18 4 C-12.46000911 -0.91044647 -7.0565751 -4.7043834 0 0 Z " fill="#335EB3" transform="translate(70,20)"/>
<path d="M0 0 C0.66 0 1.32 0 2 0 C2 0.66 2 1.32 2 2 C4.475 2.99 4.475 2.99 7 4 C6.34 4.66 5.68 5.32 5 6 C4.01 6 3.02 6 2 6 C2 5.34 2 4.68 2 4 C1.34 4 0.68 4 0 4 C-0.33 4.66 -0.66 5.32 -1 6 C-1 5.34 -1 4.68 -1 4 C-4.3 4 -7.6 4 -11 4 C-11 3.67 -11 3.34 -11 3 C-7.7 3 -4.4 3 -1 3 C-0.67 2.01 -0.34 1.02 0 0 Z " fill="#255CD3" transform="translate(31,90)"/>
<path d="M0 0 C0.66 0 1.32 0 2 0 C2 0.99 2 1.98 2 3 C2.66 3 3.32 3 4 3 C4.33 5.97 4.66 8.94 5 12 C3.68 11.34 2.36 10.68 1 10 C0.390625 7.6171875 0.390625 7.6171875 0.25 4.875 C0.19328125 3.96492188 0.1365625 3.05484375 0.078125 2.1171875 C0.05234375 1.41851562 0.0265625 0.71984375 0 0 Z " fill="#4F79E9" transform="translate(96,58)"/>
<path d="M0 0 C0 0.33 0 0.66 0 1 C-3.3 1 -6.6 1 -10 1 C-10.33 1.99 -10.66 2.98 -11 4 C-15.49885947 4.86516528 -18.01647791 5.30903272 -22 3 C-14.50298299 0.563832 -7.87690257 -0.41136629 0 0 Z " fill="#436DC3" transform="translate(64,39)"/>
<path d="M0 0 C1.17219543 0.78345715 2.33763668 1.57702836 3.5 2.375 C4.1496875 2.81585938 4.799375 3.25671875 5.46875 3.7109375 C6.22671875 4.34902344 6.22671875 4.34902344 7 5 C7 5.66 7 6.32 7 7 C1.72250715 6.46148032 -2.25645564 5.22656164 -7 3 C-4.50935112 2.31292445 -2.62113708 2 0 2 C0 1.34 0 0.68 0 0 Z " fill="#3962B2" transform="translate(49,103)"/>
<path d="M0 0 C3.3 0 6.6 0 10 0 C10 0.99 10 1.98 10 3 C7.6875 4.125 7.6875 4.125 5 5 C4.01 4.34 3.02 3.68 2 3 C1.67 3.66 1.34 4.32 1 5 C0.67 3.35 0.34 1.7 0 0 Z " fill="#3666E4" transform="translate(88,41)"/>
<path d="M0 0 C0.33 0.99 0.66 1.98 1 3 C1.66 3.33 2.32 3.66 3 4 C3.625 6.0625 3.625 6.0625 4 8 C2.51882199 7.71872579 1.04006751 7.42466268 -0.4375 7.125 C-1.26121094 6.96257812 -2.08492188 6.80015625 -2.93359375 6.6328125 C-3.61550781 6.42398438 -4.29742187 6.21515625 -5 6 C-5.33 5.34 -5.66 4.68 -6 4 C-4.35 4 -2.7 4 -1 4 C-0.67 2.68 -0.34 1.36 0 0 Z " fill="#2C59BD" transform="translate(67,93)"/>
<path d="M0 0 C1.98 0 3.96 0 6 0 C5.01 2.97 4.02 5.94 3 9 C2.67 9 2.34 9 2 9 C2 7.35 2 5.7 2 4 C1.01 4.33 0.02 4.66 -1 5 C-0.67 3.35 -0.34 1.7 0 0 Z " fill="#4577EF" transform="translate(79,84)"/>
<path d="M0 0 C2.97 0.495 2.97 0.495 6 1 C5.67 2.32 5.34 3.64 5 5 C3.02 5.33 1.04 5.66 -1 6 C-1.33 5.34 -1.66 4.68 -2 4 C-1.0625 1.875 -1.0625 1.875 0 0 Z " fill="#5B77CC" transform="translate(89,76)"/>
<path d="M0 0 C1.74965358 -0.05429959 3.49979787 -0.09292823 5.25 -0.125 C6.22453125 -0.14820313 7.1990625 -0.17140625 8.203125 -0.1953125 C11.06627213 0.00462794 12.65155238 0.37332298 15 2 C15.33 2.99 15.66 3.98 16 5 C14.68 5.33 13.36 5.66 12 6 C11.67 5.34 11.34 4.68 11 4 C10.01 3.67 9.02 3.34 8 3 C8 2.34 8 1.68 8 1 C5.36 1.33 2.72 1.66 0 2 C0 1.34 0 0.68 0 0 Z " fill="#6793E9" transform="translate(57,58)"/>
<path d="M0 0 C0 0.66 0 1.32 0 2 C1.65 2 3.3 2 5 2 C5 2.99 5 3.98 5 5 C1.7 5 -1.6 5 -5 5 C-4.67 3.68 -4.34 2.36 -4 1 C-2 0 -2 0 0 0 Z " fill="#2651B4" transform="translate(43,23)"/>
<path d="M0 0 C3.52069985 0.58678331 5.71299843 1.35649921 9 3 C9 7.29 9 11.58 9 16 C8.34 15.67 7.68 15.34 7 15 C7 11.7 7 8.4 7 5 C5.02 4.01 3.04 3.02 1 2 C0.67 2.66 0.34 3.32 0 4 C0 2.68 0 1.36 0 0 Z " fill="#4F6DB0" transform="translate(28,57)"/>
<path d="M0 0 C3.3 0 6.6 0 10 0 C9.67 1.32 9.34 2.64 9 4 C7.35 4.33 5.7 4.66 4 5 C4 4.34 4 3.68 4 3 C2.68 2.67 1.36 2.34 0 2 C0 1.34 0 0.68 0 0 Z " fill="#3469E3" transform="translate(73,39)"/>
<path d="M0 0 C1.32 0.66 2.64 1.32 4 2 C4 4.64 4 7.28 4 10 C2.68 9.67 1.36 9.34 0 9 C-0.87890625 2.84765625 -0.87890625 2.84765625 -1 1 C-0.67 0.67 -0.34 0.34 0 0 Z " fill="#315BC6" transform="translate(107,66)"/>
<path d="M0 0 C3.96 0 7.92 0 12 0 C12 0.66 12 1.32 12 2 C12.598125 2.061875 13.19625 2.12375 13.8125 2.1875 C16.87143458 3.3236757 17.55041099 5.17330142 19 8 C16.49693388 6.88752617 14.86253662 5.86657966 12.875 3.9375 C8.78337407 1.18009991 4.8399608 1.18795964 0 1 C0 0.67 0 0.34 0 0 Z " fill="#2555B2" transform="translate(18,94)"/>
<path d="M0 0 C1.65 0 3.3 0 5 0 C5.28875 0.969375 5.5775 1.93875 5.875 2.9375 C6.64214682 6.10664203 6.64214682 6.10664203 9 7 C9 7.66 9 8.32 9 9 C6.525 8.01 6.525 8.01 4 7 C4 4 4 4 5 2 C3.02 2.33 1.04 2.66 -1 3 C-0.67 2.01 -0.34 1.02 0 0 Z " fill="#4168C2" transform="translate(50,87)"/>
<path d="M0 0 C0.66 0 1.32 0 2 0 C2 0.66 2 1.32 2 2 C7.28 2.33 12.56 2.66 18 3 C17.67 3.99 17.34 4.98 17 6 C11.72 5.01 6.44 4.02 1 3 C0.67 2.01 0.34 1.02 0 0 Z " fill="#5478C2" transform="translate(40,54)"/>
<path d="M0 0 C2.97 0.99 5.94 1.98 9 3 C7.375 4.625 7.375 4.625 5 6 C1.75 5.1875 1.75 5.1875 -1 4 C-1 1 -1 1 0 0 Z " fill="#466DBF" transform="translate(72,17)"/>
<path d="M0 0 C0.66 0 1.32 0 2 0 C1.67 2.97 1.34 5.94 1 9 C-1.31 9 -3.62 9 -6 9 C-5.34 8.67 -4.68 8.34 -4 8 C-4 7.34 -4 6.68 -4 6 C-3.34 6 -2.68 6 -2 6 C-1.34 4.02 -0.68 2.04 0 0 Z " fill="#547DE6" transform="translate(31,36)"/>
<path d="M0 0 C2.4375 0.1875 2.4375 0.1875 5 1 C6.3125 3.0625 6.3125 3.0625 7 5 C5.68 4.67 4.36 4.34 3 4 C3 3.34 3 2.68 3 2 C2.34 2 1.68 2 1 2 C1 2.99 1 3.98 1 5 C-0.32 5 -1.64 5 -3 5 C-1.125 1.125 -1.125 1.125 0 0 Z " fill="#2C5CE5" transform="translate(63,103)"/>
<path d="M0 0 C0.61488281 0.08378906 1.22976562 0.16757812 1.86328125 0.25390625 C3.07564453 0.40666016 3.07564453 0.40666016 4.3125 0.5625 C5.11300781 0.66691406 5.91351563 0.77132812 6.73828125 0.87890625 C9.16817116 1.14755178 9.16817116 1.14755178 12 0 C12.99 0.33 13.98 0.66 15 1 C15 1.99 15 2.98 15 4 C9.1977825 4.36263859 5.36000789 3.25684543 0 1 C0 0.67 0 0.34 0 0 Z " fill="#4D71D8" transform="translate(72,63)"/>
<path d="M0 0 C0 0.66 0 1.32 0 2 C0.66 2.33 1.32 2.66 2 3 C-1.78187881 4.83691257 -3.94568308 5.15837626 -8 4 C-6 1 -6 1 -4 0.3125 C-2 0 -2 0 0 0 Z " fill="#3B6CDC" transform="translate(37,49)"/>
<path d="M0 0 C5.66153846 1.47692308 5.66153846 1.47692308 7.375 4.125 C7.58125 4.74375 7.7875 5.3625 8 6 C7.0925 5.649375 6.185 5.29875 5.25 4.9375 C2.12241564 4.03531221 0.94791919 3.86618493 -2 5 C-1.34 3.35 -0.68 1.7 0 0 Z " fill="#476FC5" transform="translate(48,30)"/>
<path d="M0 0 C0.33 0.99 0.66 1.98 1 3 C0.01 3.495 0.01 3.495 -1 4 C-1.33 4.99 -1.66 5.98 -2 7 C-2.66 6.67 -3.32 6.34 -4 6 C-4 5.34 -4 4.68 -4 4 C-4.99 4.33 -5.98 4.66 -7 5 C-7.33 4.34 -7.66 3.68 -8 3 C-5.4345406 0.4345406 -3.52313332 0.45953913 0 0 Z " fill="#3E72F3" transform="translate(64,89)"/>
<path d="M0 0 C0.33 0 0.66 0 1 0 C1.25 6.625 1.25 6.625 -1 10 C-3.625 10.1875 -3.625 10.1875 -6 10 C-6.33 9.01 -6.66 8.02 -7 7 C-5.02 6.34 -3.04 5.68 -1 5 C-0.67 3.35 -0.34 1.7 0 0 Z " fill="#517EE2" transform="translate(48,46)"/>
<path d="M0 0 C0.99 0.33 1.98 0.66 3 1 C3 2.32 3 3.64 3 5 C2.34 5 1.68 5 1 5 C1 5.99 1 6.98 1 8 C0.01 8 -0.98 8 -2 8 C-1.125 1.125 -1.125 1.125 0 0 Z " fill="#3F6DDB" transform="translate(84,86)"/>
<path d="M0 0 C4.21912747 0.4794463 6.79663178 1.16625119 10 4 C9.01 4.66 8.02 5.32 7 6 C3.84532227 5.23056641 2.41411896 4.67047831 0.6875 1.875 C0.460625 1.25625 0.23375 0.6375 0 0 Z " fill="#517BD3" transform="translate(43,63)"/>
<path d="M0 0 C0.33 0 0.66 0 1 0 C1 4.29 1 8.58 1 13 C0.01 13.495 0.01 13.495 -1 14 C-1.12375 13.21625 -1.2475 12.4325 -1.375 11.625 C-1.79117993 8.85942178 -1.79117993 8.85942178 -4 7 C-3.01 7 -2.02 7 -1 7 C-1.020625 6.030625 -1.04125 5.06125 -1.0625 4.0625 C-1 1 -1 1 0 0 Z " fill="#3E5DB6" transform="translate(103,26)"/>
<path d="M0 0 C2.31 0 4.62 0 7 0 C8 3 8 3 7.0625 5.1875 C6.5365625 6.0846875 6.5365625 6.0846875 6 7 C5.7525 6.360625 5.505 5.72125 5.25 5.0625 C4.18437567 2.81258459 4.18437567 2.81258459 1.875 2.25 C0.946875 2.12625 0.946875 2.12625 0 2 C0 1.34 0 0.68 0 0 Z " fill="#365CC5" transform="translate(38,28)"/>
<path d="M0 0 C0.99 0.33 1.98 0.66 3 1 C2.67 3.31 2.34 5.62 2 8 C2.66 8.33 3.32 8.66 4 9 C1.03 8.505 1.03 8.505 -2 8 C-1.34 7.34 -0.68 6.68 0 6 C-0.29369827 4.65737935 -0.6278958 3.32303717 -1 2 C-0.67 1.34 -0.34 0.68 0 0 Z " fill="#2E59C7" transform="translate(72,26)"/>
<path d="M0 0 C1.09570312 0.10183594 2.19140625 0.20367187 3.3203125 0.30859375 C4.16335937 0.39238281 5.00640625 0.47617188 5.875 0.5625 C5.875 0.8925 5.875 1.2225 5.875 1.5625 C3.235 1.8925 0.595 2.2225 -2.125 2.5625 C-2.125 3.2225 -2.125 3.8825 -2.125 4.5625 C-2.785 4.5625 -3.445 4.5625 -4.125 4.5625 C-4.455 3.9025 -4.785 3.2425 -5.125 2.5625 C-6.115 1.9025 -7.105 1.2425 -8.125 0.5625 C-5.28943413 -0.85528293 -3.1341294 -0.30007622 0 0 Z " fill="#3A5DB2" transform="translate(85.125,102.4375)"/>
<path d="M0 0 C0.66 0.33 1.32 0.66 2 1 C2.73075648 3.3140622 3.40138258 5.64828869 4 8 C3.01 7.34 2.02 6.68 1 6 C1 5.34 1 4.68 1 4 C-0.32 4.33 -1.64 4.66 -3 5 C-3 4.34 -3 3.68 -3 3 C-3.99 2.67 -4.98 2.34 -6 2 C-4 1 -4 1 -1 1 C-0.67 0.67 -0.34 0.34 0 0 Z " fill="#3A69D1" transform="translate(43,79)"/>
<path d="M0 0 C2 1.8125 2 1.8125 4 4 C4 4.99 4 5.98 4 7 C5.9375006 9.18777466 5.9375006 9.18777466 8 11 C7.67 11.66 7.34 12.32 7 13 C6.34 13 5.68 13 5 13 C1.96659855 8.95546473 1.06821439 4.84804991 0 0 Z " fill="#5070C0" transform="translate(26,62)"/>
<path d="M0 0 C0.33 0 0.66 0 1 0 C1 1.65 1 3.3 1 5 C0.34 5 -0.32 5 -1 5 C-0.67 5.99 -0.34 6.98 0 8 C-1.65 8.33 -3.3 8.66 -5 9 C-5 8.01 -5 7.02 -5 6 C-4.01 6 -3.02 6 -2 6 C-1.855625 5.195625 -1.71125 4.39125 -1.5625 3.5625 C-1 1 -1 1 0 0 Z " fill="#92AFE1" transform="translate(57,61)"/>
<path d="M0 0 C2.125 0.375 2.125 0.375 4 1 C3.01 1 2.02 1 1 1 C1.33 2.98 1.66 4.96 2 7 C1.01 7.33 0.02 7.66 -1 8 C-1.66 7.01 -2.32 6.02 -3 5 C-2 2 -2 2 0 0 Z " fill="#2E62DC" transform="translate(103,80)"/>
<path d="M0 0 C0.66 0 1.32 0 2 0 C1.47731534 2.76276177 0.89130413 5.3260876 0 8 C-2.97 7.505 -2.97 7.505 -6 7 C-6 6.34 -6 5.68 -6 5 C-4.35 4.67 -2.7 4.34 -1 4 C-0.67 2.68 -0.34 1.36 0 0 Z " fill="#CBE1F9" transform="translate(63,62)"/>
<path d="M0 0 C0.66 0 1.32 0 2 0 C2.33 3.63 2.66 7.26 3 11 C2.34 10.67 1.68 10.34 1 10 C1 8.02 1 6.04 1 4 C0.01 4.33 -0.98 4.66 -2 5 C-1.34 3.35 -0.68 1.7 0 0 Z " fill="#3859AD" transform="translate(21,43)"/>
<path d="M0 0 C2.31 0.33 4.62 0.66 7 1 C5.68 1.33 4.36 1.66 3 2 C3.33 3.98 3.66 5.96 4 8 C2.35 6.35 0.7 4.7 -1 3 C-0.67 2.01 -0.34 1.02 0 0 Z " fill="#305BC2" transform="translate(78,21)"/>
<path d="M0 0 C1.65 0 3.3 0 5 0 C4.67 1.65 4.34 3.3 4 5 C2.02 4.34 0.04 3.68 -2 3 C-1.34 2.67 -0.68 2.34 0 2 C0 1.34 0 0.68 0 0 Z " fill="#5C87DB" transform="translate(94,98)"/>
<path d="M0 0 C1.32 0 2.64 0 4 0 C4 1.98 4 3.96 4 6 C2.35 5.67 0.7 5.34 -1 5 C-0.67 3.35 -0.34 1.7 0 0 Z " fill="#4E7DED" transform="translate(32,84)"/>
<path d="M0 0 C1.98 0.495 1.98 0.495 4 1 C3.125 5.75 3.125 5.75 2 8 C1.01 7.67 0.02 7.34 -1 7 C-0.67 4.69 -0.34 2.38 0 0 Z " fill="#5075BE" transform="translate(82,75)"/>
<path d="M0 0 C1.32 0 2.64 0 4 0 C3.67 2.31 3.34 4.62 3 7 C2.01 6.67 1.02 6.34 0 6 C0 4.02 0 2.04 0 0 Z " fill="#466ED9" transform="translate(16,71)"/>
<path d="M0 0 C0.99 0.66 1.98 1.32 3 2 C3 2.99 3 3.98 3 5 C1.02 5 -0.96 5 -3 5 C-3.33 4.01 -3.66 3.02 -4 2 C-2.68 1.34 -1.36 0.68 0 0 Z " fill="#5780EA" transform="translate(25,63)"/>
<path d="M0 0 C0.66 0.33 1.32 0.66 2 1 C2.6328125 3.28515625 2.6328125 3.28515625 3.125 6.0625 C3.29257813 6.98160156 3.46015625 7.90070313 3.6328125 8.84765625 C3.75398438 9.55792969 3.87515625 10.26820312 4 11 C2.68 10.67 1.36 10.34 0 10 C0.66 10 1.32 10 2 10 C1.484375 8.906875 0.96875 7.81375 0.4375 6.6875 C-1 3 -1 3 0 0 Z " fill="#3B65D4" transform="translate(94,58)"/>
<path d="M0 0 C0.66 0.33 1.32 0.66 2 1 C2 1.99 2 2.98 2 4 C2.99 4 3.98 4 5 4 C5.33 5.98 5.66 7.96 6 10 C4.2925002 8.71937515 2.62626404 7.38232443 1 6 C1 5.34 1 4.68 1 4 C0.34 3.67 -0.32 3.34 -1 3 C-0.67 2.01 -0.34 1.02 0 0 Z " fill="#2D54BA" transform="translate(104,50)"/>
<path d="M0 0 C0.66 0 1.32 0 2 0 C2.33 2.31 2.66 4.62 3 7 C2.01 7.495 2.01 7.495 1 8 C0.01 7.01 -0.98 6.02 -2 5 C-1.34 3.35 -0.68 1.7 0 0 Z " fill="#2B5CD2" transform="translate(20,47)"/>
<path d="M0 0 C2.31 0.66 4.62 1.32 7 2 C6.67 2.99 6.34 3.98 6 5 C4.35 5 2.7 5 1 5 C0.67 3.35 0.34 1.7 0 0 Z " fill="#456BC8" transform="translate(90,100)"/>
<path d="M0 0 C2.31 0.66 4.62 1.32 7 2 C5.8125 3.5 5.8125 3.5 4 5 C1.3125 5.1875 1.3125 5.1875 -1 5 C-0.67 3.35 -0.34 1.7 0 0 Z " fill="#4B77E5" transform="translate(59,82)"/>
<path d="M0 0 C1.32 0.66 2.64 1.32 4 2 C3.34 3.32 2.68 4.64 2 6 C1.01 6 0.02 6 -1 6 C-0.67 4.02 -0.34 2.04 0 0 Z " fill="#7EA5FB" transform="translate(44,43)"/>
<path d="M0 0 C1.485 0.99 1.485 0.99 3 2 C3.99 1.67 4.98 1.34 6 1 C5.1875 3.4375 5.1875 3.4375 4 6 C3.01 6.33 2.02 6.66 1 7 C0.67 4.69 0.34 2.38 0 0 Z " fill="#3657B1" transform="translate(100,85)"/>
<path d="M0 0 C0.66 0.33 1.32 0.66 2 1 C2.1875 3.375 2.1875 3.375 2 6 C1.01 6.66 0.02 7.32 -1 8 C-1.33 5.69 -1.66 3.38 -2 1 C-1.34 0.67 -0.68 0.34 0 0 Z " fill="#5888F1" transform="translate(72,85)"/>
<path d="M0 0 C0.99 0.33 1.98 0.66 3 1 C3 2.65 3 4.3 3 6 C0.525 5.01 0.525 5.01 -2 4 C-1.34 2.68 -0.68 1.36 0 0 Z " fill="#5774C7" transform="translate(23,56)"/>
<path d="M0 0 C0.99 0.33 1.98 0.66 3 1 C3 1.99 3 2.98 3 4 C3.66 4.33 4.32 4.66 5 5 C5 5.99 5 6.98 5 8 C3.68 8 2.36 8 1 8 C0.67 5.36 0.34 2.72 0 0 Z " fill="#3262E9" transform="translate(89,27)"/>
<path d="M0 0 C1.32 0 2.64 0 4 0 C4 0.66 4 1.32 4 2 C5.65 2 7.3 2 9 2 C6.08235 3.9451 4.37462715 4.45276317 1 5 C0.67 3.35 0.34 1.7 0 0 Z " fill="#3665D8" transform="translate(55,87)"/>
<path d="M0 0 C0.33 0 0.66 0 1 0 C1.125 3.375 1.125 3.375 1 7 C-1 9 -1 9 -4 10 C-4 9.01 -4 8.02 -4 7 C-3.34 7 -2.68 7 -2 7 C-1.34 4.69 -0.68 2.38 0 0 Z " fill="#4272EB" transform="translate(106,60)"/>
<path d="M0 0 C0.99 0.33 1.98 0.66 3 1 C2.67 1.99 2.34 2.98 2 4 C-0.25 4.6875 -0.25 4.6875 -3 5 C-5.3125 3.5625 -5.3125 3.5625 -7 2 C-5.02 2 -3.04 2 -1 2 C-0.67 1.34 -0.34 0.68 0 0 Z " fill="#5788F0" transform="translate(62,54)"/>
<path d="M0 0 C1.98 0 3.96 0 6 0 C5.67 1.32 5.34 2.64 5 4 C3.68 4 2.36 4 1 4 C0.67 2.68 0.34 1.36 0 0 Z " fill="#3569E7" transform="translate(33,34)"/>
<path d="M0 0 C-0.33 1.32 -0.66 2.64 -1 4 C-2.65 3.67 -4.3 3.34 -6 3 C-6 2.34 -6 1.68 -6 1 C-4 0 -4 0 0 0 Z " fill="#4173E9" transform="translate(29,32)"/>
<path d="M0 0 C0.66 0.33 1.32 0.66 2 1 C1.95875 1.763125 1.9175 2.52625 1.875 3.3125 C1.77919176 6.22718416 1.77919176 6.22718416 4 9 C2.125 8.375 2.125 8.375 0 7 C-1.25 3.875 -1.25 3.875 -2 1 C-1.34 0.67 -0.68 0.34 0 0 Z " fill="#395FB1" transform="translate(22,81)"/>
<path d="M0 0 C1.32 0.33 2.64 0.66 4 1 C4.33 2.32 4.66 3.64 5 5 C3.68 5 2.36 5 1 5 C0.67 3.35 0.34 1.7 0 0 Z " fill="#4174F0" transform="translate(53,82)"/>
<path d="M0 0 C1.45823212 -0.0270043 2.91660675 -0.04639787 4.375 -0.0625 C5.18710938 -0.07410156 5.99921875 -0.08570312 6.8359375 -0.09765625 C9 0 9 0 11 1 C11 1.99 11 2.98 11 4 C9.68 3.67 8.36 3.34 7 3 C7 2.67 7 2.34 7 2 C4.69 1.67 2.38 1.34 0 1 C0 0.67 0 0.34 0 0 Z " fill="#4160A8" transform="translate(89,19)"/>
<path d="M0 0 C0.5534764 2.07553648 1 3.84365964 1 6 C-1.475 5.01 -1.475 5.01 -4 4 C-4 3.34 -4 2.68 -4 2 C-2.68 1.34 -1.36 0.68 0 0 Z " fill="#2A5FCC" transform="translate(41,99)"/>
<path d="M0 0 C0.66 0.33 1.32 0.66 2 1 C1.34 3.31 0.68 5.62 0 8 C-2 5 -2 5 -1.6875 2.875 C-1 1 -1 1 0 0 Z " fill="#4B6BAC" transform="translate(15,77)"/>
<path d="M0 0 C1.17539996 0.92652701 2.34010577 1.86663387 3.5 2.8125 C4.1496875 3.33457031 4.799375 3.85664062 5.46875 4.39453125 C7 6 7 6 7 9 C5.82460004 8.07347299 4.65989423 7.13336613 3.5 6.1875 C2.52546875 5.40439453 2.52546875 5.40439453 1.53125 4.60546875 C0 3 0 3 0 0 Z " fill="#486EC6" transform="translate(68,44)"/>
<path d="M0 0 C0.66 0 1.32 0 2 0 C2 0.66 2 1.32 2 2 C2.66 2.33 3.32 2.66 4 3 C0.5647952 5.29013653 -0.985331 5.17842973 -5 5 C-5 4.67 -5 4.34 -5 4 C-3.35 4 -1.7 4 0 4 C0 2.68 0 1.36 0 0 Z " fill="#3563C3" transform="translate(64,105)"/>
<path d="M0 0 C0.928125 0.2784375 0.928125 0.2784375 1.875 0.5625 C4.04160178 1.23686176 4.04160178 1.23686176 6 0 C5.67 1.32 5.34 2.64 5 4 C3.68 4 2.36 4 1 4 C0.67 2.68 0.34 1.36 0 0 Z " fill="#3E6ACF" transform="translate(19,78)"/>
<path d="M0 0 C1.32 0.33 2.64 0.66 4 1 C4.33 2.98 4.66 4.96 5 7 C4.34 7 3.68 7 3 7 C2.87625 6.360625 2.7525 5.72125 2.625 5.0625 C2.315625 4.0415625 2.315625 4.0415625 2 3 C1.34 2.67 0.68 2.34 0 2 C0 1.34 0 0.68 0 0 Z " fill="#4578F1" transform="translate(23,69)"/>
<path d="M0 0 C0.66 0.66 1.32 1.32 2 2 C1.34 2 0.68 2 0 2 C0 1.34 0 0.68 0 0 Z " fill="#687397" transform="translate(90,72)"/>
</svg>
